<?xml version="1.0" encoding="UTF-8"?>
<svg version="1.1" viewBox="0 0 1600 703" width="384" height="169" xmlns="http://www.w3.org/2000/svg">
<path transform="translate(70,35)" d="m0 0h324l3 8 8 34 6 1 6-1 4-39 1-3 756 1 1 1 3 36v6h10l2-1 11-42h324l3 13 7 42 1 5v7l-18 38-12 26-10 22 2 17 11 72 1 10-18 36-5 9h44l23 70 14 43 3 9v6l-5 14-15 43-3 2-10-1 6 20-25 74-14 41-5 13-1 1h-318l-3-15-4-29-11 1-4 20-4 22-1 1h-212l-2-19-5-89v-33l1-8h-40v12l-6 123-1 14h-106l-1-1v-148h-16l-34 1v49l-2 98-1 1h-638l-5-12-44-132-12-37-9-27v-7l15-46 13-41 6-19-1-5-14-26-15-28-1-4 12-73 27-165 2-10zm576 169-1 1v9l1 1h96l2-1 1-9-3-1zm688 0-1 2 5 46 3 26v14l-11 27-5 14h28v-8l-7-60-7-57-2-4zm-927 120-3 3 2 5 6-1v-5zm784 0-3 4-7 24-1 5v12l2 4 2 1h9l3-2 1-4v-22l-2-19-2-3z" fill="#05132B"/>
<path transform="translate(300,351)" d="m0 0h196l-6 51-7 54 1 12 3 24 4 33 16 118v7h-186l-2-3-10-49-8-35-4-15-4-21-2-10-2-5-6-29-3-11-2-18 1-2 2-14 3-10 3-17z" fill="#D5DBDE"/>
<path transform="translate(1076,351)" d="m0 0h56l30 1 8 50 6 38 2 16-1 12-3 17-1 11-1 3h27l-1 14-4 23-1 2h27l1-9 2-8 2-14 4-18 2-14 2-7v-20l-1-11 6-2 15-1 62 1 2-2 3 8 2 11 1 1-1 12-4 18-3 13-4 14-4 20-4 14-6 27-2 10-6 24-9 40-2 5h-80l1-9 3-16 4-18 2-10h-27l1-8 6-30h-27l-2 17-6 32-7 41-1 1h-80l2-16 7-55 3-21 1-13 2-11 3-19 2-24 3-21v-22l-10-84-2-9z" fill="#D5DBDE"/>
<path transform="translate(1089,54)" d="m0 0h58l17 1 2 12 2 31 25-1 1 1 4 25 1 20 24-1 2-1-2-20-1-19-4-34v-13h80l2 7 3 22 1 16 3 18 2 24 3 19 1 14 1 5 6 54 1 15 2 11 1 7v16l-9 27-9 22-2 1h-80l-1-2 9-25 5-18v-26l-3-23-1-26h-20l-7-1-1-1-1-9-1-2-2-23v-11h-27l2 26 2 15 2 27 1 8v27l-15-3v4l-4 1-3-3 3-2-2-5-11-10-7-4h-5l1 2v6l-2 4h-10l-2-5 3-9 6-1v-5l-5-4-3-3v-2l-4-2-8-7-1-2-8-3v-2l-4-1-2-5-4-1-2-12-3-32-2-37-1-10-2-43-1-9v-9z" fill="#03A461"/>
<path transform="translate(302,53)" d="m0 0h80l-1 21-2 20-1 4 11-1h14l3 1v9l-4 36 27-1 2-35 5-53 1-1h80l-1 36-2 28-2 40-4 57-2 37-2 33 4 23 4 16 1 8-1 1-20 1h-60l-4-9-10-37-1-10 6-66h-27v-12l3-33h-27v10l-3 31-2 9-2 25-2 6-8 4-5 5h-6l-9-5-7-7-11-9-12-11-6-5-5-6-4-2v-2l-4-2-1-2v-14l4-37 1-2 3-36 4-33 4-29z" fill="#13B067"/>
<path transform="translate(54,431)" d="m0 0 6 3h45l29 2 4-1-1 12-2 5v9l6 23 5 17v4h2l4 18 2 4 2 9 2 1 26 1-3-8-7-27-10-36-1-2v-17l3-7 3-3h3v-2l2-1h68l11 1v11l-3 8v5l2 2 5 25 9 40 9 38 9 39 6 25 4 16v5h-80l-6-21-8-30-2-7-3-11v-4l-26 1v4l16 56 2 5v7h-79l-4-10-11-32-5-17-5-14-5-17-7-20-6-18-3-12v-4h-2l-13-41v-16l3-7 3-9z" fill="#D5DBDE"/>
<path transform="translate(1543,427)" d="m0 0 2 2 5 15 3 7v13l-9 27-4 9-114 1-4 17-3 13-5 16-4 16-14 46-1 5h26l3-11 4-16 3-8 8-28 3-11 1-1h85l-14 42-4 13-12 36-5 16-3 4h-185l1-9 6-26 5-18 5-23 5-19 5-22 2-6 1-7 3-8 4-20 7-28v-10l-1-4v-9h-2v-8l1 2h168l21 1 6-3z" fill="#D5DBDE"/>
<path transform="translate(539,434)" d="m0 0h71l81 1 15 2 6-1 2-2v24l-53 1 18 13 19 13 9 6h6l1-2 1 10h-113l1 6v33h114l1 12 1 27 1 73h-186l-3-16-1-11v-9h108l-2-6-1-11v-20h-109l-2-2-2-10-1-18-3-23-2-11-6-49v-13l3-15 13-1z" fill="#D5DBDE"/>
<path transform="translate(867,54)" d="m0 0h181l9 1 1 31 1 13h-108l2 43 108 1 4 35v10l-1 1h-110l2 26v19h20l39 1 20 20 3 4 11 2 3 5v4l-3 3h-7l-15-6-11 2-37 3h-26l-9-5-10-9-11-10-8-7-10-7-11-8-10-9-7-9-6-5-2-39-1-9z" fill="#0FBD7C"/>
<path transform="translate(744,431)" d="m0 0 2 3 11 1h14l31-1h38l90 1 10 1 2-1 2-3 2 22-1 42-1 3h-58v34l-3 63-1 28-2 26h-81v-43l1-107h-57v-65z" fill="#D5DBDE"/>
<path transform="translate(85,53)" d="m0 0h189v12l-5 42-4 33-3 24-5 5-2 4-5-2-1-2v-6l-1-2-10-1-16-13-14-11-10-9-6-5-5-5-2-1 1-16 1-2h-26l-5 35-1 8-2 2h2v2h2v2h2l1 4-1 2h-2v3l-8 4-6 6-6 3h-2v6l10 10 1 2v18l-4 29-5 33-2 6-2-3-5-1-5 1h-28l-1-1v-15l3-5v-10l-4-2-6-7-6-4-3-8-4-2-6-8v-2l-6-1v-15l3-16 4-28 2-10 3-19 3-16 3-23 3-13 1-11z" fill="#1BBB6A"/>
<path transform="translate(544,53)" d="m0 0h104l85 1v24l-1 21-108-1-1 47-3 57-1 31 55 1 7 3 8 6 14 14 1 3-4 6-9 7-8 4h-14l-12-2h-28l-13-2-1 3-4-1-2-7-9-2-3-2-1 5-1 1h-15l-4-2-1-2v-8l3-7-1-9-2-4-11-7-7-5-5-5-5-4-4-5-7-4v-22l2-29 1-33z" fill="#1DBA6B"/>
<path transform="translate(1326,54)" d="m0 0h32l157 1 1 13 2 10 2 15v6l-53-1 2 8 1 13 3 14 4 29 8 53 4 27 4 26 1 5v10l-12 1-71-1-2-1-4-25-3-23-2-13-4-34-4-27-7-52v-9h-54l-1-1-3-25-1-9z" fill="#1BBB6A"/>
<path transform="translate(319,458)" d="m0 0h12v1h8l11-1h53v1l-17 1 19 3 4 2 2 5-3 10-5 6v8l3 9 4 9-1 4-5-3-2-5-1-9h-27l5 25 3 20 2 7 4 26 7 36 26 1-2-9v-9l2 3 3 10 3 3v2h2l4 6 8 4 7 3 10 3 20 2h11l4-4 3-19 1-3v-17l-3-19-4-17-5-12-3-9-2-9 1-4 2 4-4-21-6-12 5 1 8 4 2 8 11 80 8 60v7h-186l-2-3-10-49-8-35-4-15-4-21-2-10-2-5-3-19 1-2h3l5-1 4 2h10l9-1h21l8-3 5-1 2-4-14-9-21-13z" fill="#D5DBDE"/>
<path transform="translate(161,98)" d="m0 0h26l-2 18 5 2 4 5 8 7 13 11 13 10 10 8 10 1 2 3v7l5 3 2-6 3-2 1 1v12l-4 33-5 45-3 19v8l8 22 9 23v4l-3 1h-78l-5-10-11-23-4-8-2-6v-15l4-26 2-18 5-37 1-2-4 1h-23l-1 8h-1l-1-10-7-8-4-4 1-6 9-5 6-6 7-2v-3h2v-6h-2v-2h-2v-2h-2l2-10 3-23z" fill="#019960"/>
<path transform="translate(973,434)" d="m0 0 1 2 18-1h50l16 2 1-3v3h2v39l-3 17-2 26-4 33-2 10-2 24-2 10-6 53-1 1h-80l1-18 1-17 1-4 6-75 2-30 2-27z" fill="#D5DBDE"/>
<path transform="translate(523,351)" d="m0 0h131l63 1v32l-1 45-1 67h-1l-1-5-6 1-15-10-17-12-16-11v-1h55l-1-22-7 2-15-2-87-1h-65l-18 1h-8v6h-1l1-15 9-71z" fill="#677180"/>
<path transform="translate(300,351)" d="m0 0h196l-6 51-5 39-3-4-4-1-27-1h-158l-10-1 3-18z" fill="#677180"/>
<path transform="translate(828,351)" d="m0 0h98l14 1 5 72v20h-1l-1-9-4 2-11-1-107-1h-30l-27 1h-12l-7-2-2 1v-34l1-35 1-14z" fill="#4F5B6F"/>
<path transform="translate(1326,352)" d="m0 0h194l3 5 13 41 8 25-1 10-4 3-3 1-23-1h-157l-9-1-2 1-13-57z" fill="#4F5B6F"/>
<path transform="translate(870,183)" d="m0 0h1l1 20 7 6 6 8 11 10 15 10 8 7 11 10 8 7 7 6 8 4h27l36-3 12-2 14 6 7 1 1-3h2l-3-8-11-2-12-13-9-8-2-4h52l1 3 2 33v12l-5 29-5 20-3 1h-188l-1-4 3-42v-17l-1-50z" fill="#006047"/>
<path transform="translate(761,54)" d="m0 0h38l42 1 1 63 1 27v127l-1 2-5-2-7-7-18-1-4-4 2-4 1-4-7-8-8-7-10-7-3-6-5-4v-2l-5-2-8-7-6-4v-144z" fill="#1BBB6A"/>
<path transform="translate(535,202)" d="m0 0h1v6l5 2 6 5v2l4 2 6 5v2l4 2 15 10 3 7v7l-3 6v10l10 1h9l1-2 1-4 6 3 8 1-1 2 2 6h3l1-2h8l5 1h28l12 2h14l11-6 7-6 2-5-7-8-10-10-8-5v-1h51l1 1 1 13v84h-178l-13-1-2-7-6-34-1-8v-15z" fill="#006047"/>
<path transform="translate(1089,54)" d="m0 0h58l17 1 2 12 2 31 25-1 1 1 2 10v14l-2 3-4-3v-2h-2l-6-8-1 3-1-2-3-1-1 5-3 1-2 6-12 3-5 2-26 4-1 5-7-4-8-1-5-3v-2h-8v2l5 2 11 9 9 7 14 10 5 4v2l9 3 4 7 12 8 3 3 4 1 3 21 2 27 1 8v27l-15-3v4l-4 1-3-3 3-2-2-5-11-10-7-4h-5l1 2v6l-2 4h-10l-2-5 3-9 6-1v-5l-5-4-3-3v-2l-4-2-8-7-1-2-8-3v-2l-4-1-2-5-4-1-2-12-3-32-2-37-1-10-2-43-1-9v-9z" fill="#1CBA6B"/>
<path transform="translate(373,165)" d="m0 0h27l1 3 4 2 2 7 3 3h6l3-1 7 6 10 1 3-5h13l10-4 9-3 1-3 9-4 3-1 8 6 5 4 4 5 6 3h3l-4 67-2 33 4 23 4 16 1 8-1 1-20 1h-60l-4-9-10-37-1-10 6-66h-27v-12l3-33h-26z" fill="#01995F"/>
<path transform="translate(1201,171)" d="m0 0 3 3 7 2 13 11 6 4 6 1 5-5 3-2 8 2 6-1-1-2 12-6 10-3 1-1h13l12 10 7 4 1 3 2-2 5 45 1 15 2 11 1 7v16l-9 27-9 22-2 1h-80l-1-2 9-25 5-18v-26l-3-23-1-26h-20l-7-1-1-1-1-9-1-2-2-23z" fill="#00945E"/>
<path transform="translate(1076,351)" d="m0 0h56l30 1 8 50 6 38 2 16-1 12-3 17-1 11-2 5h-8l-16-4-21-2-5-3-5-7v-6l-26-1-2 6h-1l1-14v-22l-10-84-2-9z" fill="#9CA7AE"/>
<path transform="translate(1473,141)" d="m0 0h1l6 42 5 32 4 27 4 26 1 5v10l-12 1-71-1-2-1-4-25-3-23-2-13-4-34-4-27-1-14h3l5 4 9 3 2 1v2l11 2v-2l9-1 2-2 1-11 2 2 4 10v2l5 2v2l15-2 2-2 11-2z" fill="#00AF73"/>
<path transform="translate(867,54)" d="m0 0h181l9 1 1 31 1 13h-106l-3-1v29l-4-5-2-2h-10l-4 1-3-2-1-5-1-3-2 7-1 2h-14l-3 5-3 1 1 3-7 2-3 1h-8l-5-4-5-10-4-12-2 1-1-3z" fill="#1BBB6A"/>
<path transform="translate(120,53)" d="m0 0h154v12l-5 42-4 33-3 24-5 5-2 4-5-2-1-2v-6l-1-2-10-1-16-13-14-11-10-9-6-5-5-5-2-1 1-16 1-2h-11l-13-1-4-7-11-9-13-12-11-11-4-3z" fill="#41FAB5"/>
<path transform="translate(539,434)" d="m0 0h71l81 1 15 2 6-1 2-2v24l-53 1 18 13 19 13 9 6h6l1-2 1 10-112-1v-3l-5-2-31-21-14-9-5-4-37-1v-10l2-12 13-1z" fill="#D6DCDF"/>
<path transform="translate(302,53)" d="m0 0h80l-1 21-2 20-1 4 11-1h14l3 1v9l-4 35h-2v-28l1-5v-7l-3 1-4 4-6 3-13 6-9 2h-9l-5-4-2-5-9 1h-22l5 9 3 13h-5v10l6 8 8 6 8 8 6 4v11l-2 3h-2v2l-8 2-3 2-16 2-23-1h-9v-15l2-20 1-2 3-36 4-33 4-29z" fill="#1BBA6A"/>
<path transform="translate(285,205)" d="m0 0 5 4v2l5 2 6 7 8 7 9 8 11 9 7 7 8 4h6l8-7 5-2 2-17 1-13 2-2-1 16-2 29-3 19v6l4 13 5 16 5 15v4l-14 1h-67l-3-4-11-30-5-14v-17l8-62z" fill="#006047"/>
<path transform="translate(1543,427)" d="m0 0 2 2 5 15 3 7v13l-9 27-7 3-8-7-10-8-5-6-8-7-8-6-4 4-3 1-17-1-4-1-22-2-20-1h-37l5 5 15 14 8 7 7 6-3 3-8 1h-13l-8 3h-11l-10-4h-15l-4-5-3-9-1-8-3 3 1-9 1-3v-10l-1-4v-9h-2v-8l1 2h168l21 1 6-3z" fill="#D5DBDE"/>
<path transform="translate(744,431)" d="m0 0 2 3 11 1h14l31-1h38l90 1 10 1 2-1 2-3 2 22-1 42h-1l-1-17-3 8-3 5-4-2-17-12-21-16-8-4-2 5h-2l-1 7-3 3-5-2-2-4-1-3-9-3-17-2-35-1h-28l4 5 20 14 16 11 9 7h-3l-10-2h-18l-49-1-6-4-1 11h57v72h-1v-71h-57v-65z" fill="#D6DCDF"/>
<path transform="translate(950,99)" d="m0 0h1l2 43 108 1 4 35v10l-1 1h-110v9h-1l-1-10-9-7-11-9-4-2v-2l-4-2-9-8-11-9-16-13-12-9-6 2-1 26h-1v-51l4 2 5 15 3 5v2l4 2 1 1h8l9-2v-3l4-3 2-4h10l4 1 2-12 2 3 2 7 2 2 4-1h10l5 5z" fill="#04A561"/>
<path transform="translate(758,130)" d="m0 0h1l1 75 5 3 8 7 5 3 5 5 5 8 9 6 14 13 1 5-3 3v4l3 1 18 1 7 7 5 3 1-81h1v89l-2 49-1 2h-82l-1-48z" fill="#005F48"/>
<path transform="translate(1093,202)" d="m0 0h1v5l4 1 3 5 3 1v2l9 3 5 5 7 6v2l3 1v2l4 2 2 2v6l-7 1-2 10 1 2 10 1 1-10v-2l5-1 7 4 13 12 1 4-3 3 6 1v-4h7l8 3v-14h1v34l-7 25-6 18-1 1h-81l1-9 8-36 1-13-3-47-1-14z" fill="#006047"/>
<path transform="translate(61,197)" d="m0 0h1v8l6 1 6 8v2l5 2 3 8 7 5 6 7 2 1 1 3v7l-3 5v15h28l6-1 5 2 2 4-1 10 4 6 5 13 14 27v2l-2 1h-81l-9-16-14-27-4-8 4-27 8-51z" fill="#005F48"/>
<path transform="translate(437,53)" d="m0 0h80l-1 36-3 42-2 18-5 3h-2l-2 6-3 4-9-1-3-1-4-1-11-9-2-4-4-2-10-8-9-7-10-9-5-4v-22l4-40z" fill="#41FAB5"/>
<path transform="translate(189,351)" d="m0 0h85l-4 19-9 41-7 31h-1v-6l-4 1-7-1h-70v2l-5 1-1 2 1-8 13-48 7-27z" fill="#4F5B6F"/>
<path transform="translate(973,351)" d="m0 0h77l1 1 8 71 1 6v8h-12l-6-1h-68l-1 5h-1l-5-73v-16z" fill="#4F5B6F"/>
<path transform="translate(79,350)" d="m0 0 83 1-1 8-9 32-8 30-5 18-2-3-7 1-28-2h-42l-5-3-1-5 13-41 8-26z" fill="#4F5B6F"/>
<path transform="translate(1246,351)" d="m0 0 54 1 8 37 7 29 4 18-1 4-2-5-1 1-66-1-11 1-6 1-1 4-13-71-1-8v-9l2-1z" fill="#4F5B6F"/>
<path transform="translate(823,115)" d="m0 0 7 1 5 9v2h2v3h2l1 5 1-17h1l1 27v127l-1 2-5-2-7-7-18-1-4-4 2-4 1-4-7-8-8-7-10-7-3-6-5-4v-2l-5-2-8-7-6-4v-16l1-3 7-1 4 1 3-1 9-1 9-2h9l9-4 3-1 6 4 13 2 4 2-7-8-16-12-2-5h-2l-1-4-12-6-11-11 1-5 10-2 7-2 2-5 4-3 8-2 3-3h3z" fill="#10BD7C"/>
<path transform="translate(1443,539)" d="m0 0h85l-14 42-4 13h-2l-9 23-10 12-3 5-3 2h-10l-24-5-10-5-4-8-3-13-3-5v-9l-1-4 3-8 8-28 3-11z" fill="#D5DBDE"/>
<path transform="translate(1338,537)" d="m0 0 1 3-5 11-2 1 1 2 1 11-1 4-4 36v17l11-7h6l1 2 6-1 7-4 10-1v3l-7 3h16l4-3 5-14 1-7 3-8 3-6 7-3 3-1-1 8-8 26-1 5h26l6-22 3-4v12l4 8 3 13 2 4 10 5 24 5h10l3-1 2-5 10-12 10-26h1l-1 8-14 43-3 7-1 1h-185l1-9 6-26 5-18 5-23 5-19 2-5 8-11z" fill="#FAFBFB"/>
<path transform="translate(473,490)" d="m0 0 5 1 8 4 2 8 11 80 8 60v7h-186l-2-3-10-49-8-35v-11h1l5 21 9 21 3 11 8 20 4 6 1 1h6l4-2 3-5 7-6 11-5h7l5-2 2-3 1-6v-23l2-3h8l7 36 26 1-2-9v-9l2 3 3 10 3 3v2h2l4 6 8 4 7 3 10 3 20 2h11l4-4 3-19 1-3v-17l-3-19-4-17-5-12-3-9-2-9 1-4 2 4-4-21z" fill="#FBFBFB"/>
<path transform="translate(300,351)" d="m0 0h196l-5 43h-1l-1-6h-11l-15-2-34-1-56 1-38 1h-29l-9-3-1-2-2 1 1-9z" fill="#4F5B6F"/>
<path transform="translate(523,351)" d="m0 0h131l63 1v32l-2-1-1 3-5 2-12 1-11-1h-15l-24-1-15-1h-102l-8-3-2-5 1-14z" fill="#4F5B6F"/>
<path transform="translate(609,196)" d="m0 0 2 4 3 1v2l3 1 2 12v17l55 1 7 3 8 6 14 14 1 3-4 6-9 7-8 4h-14l-12-2h-28l-13-2-1 3-4-1-2-7-9-2-3-2-1 5-1 1h-15l-4-2-1-2v-8l3-7-1-9-2-4-11-7-7-5-5-5-5-4-4-5-7-4 1-4 3-1 11 1 10 7 1 3 7 1 6-1 2-4 3-1 3 1 9-5 9-6z" fill="#00AF73"/>
<path transform="translate(1433,55)" d="m0 0h82l1 13 2 10 2 15v6l-53-1 2 8 1 13 1 4v11l-10-4-14-11-8-6-11-7-17-13-12-8-19-14-14-10-6-4v-1z" fill="#41FAB5"/>
<path transform="translate(694,538)" d="m0 0h23l1 12 1 27 1 73h-186l-3-16-1-11v-9h108l-1-4v-14h1l2 15 4 5 4 9 4 3 17 4 18 2h15l7-2 3-3 3-11v-48l-5-2-11-9-15-9-13-8-2-3z" fill="#FBFCFC"/>
<path transform="translate(870,183)" d="m0 0h1l1 20 7 6 6 8 11 10 15 10 8 7 11 10 8 7 7 6 8 4h27l36-3 12-2 14 6 7 1 1-3h2l-3-8-11-2-12-13-9-8-2-4h52l1 3 2 33v12h-197l-2-1-1-62z" fill="#019A60"/>
<path transform="translate(577,54)" d="m0 0h156v24l-1 21-101-1-3-2-5-4-8-6-12-10-22-18z" fill="#41FAB5"/>
<path transform="translate(744,402)" d="m0 0 2 3 11 2h135l37 1 12 1 1-2 2 2 1 15v20h-1l-1-9-4 2-11-1-107-1h-30l-27 1h-12l-7-2-2 1z" fill="#838C98"/>
<path transform="translate(535,202)" d="m0 0h1v6l5 2 6 5v2l4 2 6 5v2l4 2 15 10 3 7v7l-3 6v10l10 1h9l1-2 1-4 6 3 8 1-1 2 2 6h3l1-2h8l5 1h28l12 2h14l11-6 7-6 2-5-7-8-10-10-8-5v-1h51l1 1 1 13v10l-1 7-1 17h-198v-15z" fill="#008357"/>
<path transform="translate(1536,404)" d="m0 0h2l6 19-1 10-4 3-3 1-23-1h-157l-9-1-2 1-5-22v-7l3 1 8-1h34l25 1h42l59 2h18l6-2z" fill="#838C98"/>
<path transform="translate(789,457)" d="m0 0h21l35 1 22 3 5 3 1 2 2 5 4 1 3-5 1-4h2l2-5 7 2 11 9 19 14 13 9 1-4 3-5 2-12h1v28h-58l-1 32-2 2-14-11-15-10-3-1-4-4-11-8-2-1v-2l-4-1-19-14-15-10-12-9-2-4z" fill="#FCFCFC"/>
<path transform="translate(1076,351)" d="m0 0h56l30 1 8 50v6l-2 3h-7l-12-2h-41l-20 2-2-1-1 5h-1l-6-51-2-9z" fill="#4F5B6F"/>
<path transform="translate(541,117)" d="m0 0 4 5 9 8 10 8 9 10v2l6 2 6-3h17l5 2v15l-1 9 11 8 3-2v21l-1 14-2-3-1-9-5-4-2-3-9 4-13 8-5 2-5-1-2 5-10 1-5-5-9-6-12-1h-3v-18l2-29 1-33z" fill="#0FD287"/>
<path transform="translate(65,174)" d="m0 0 1 2h2l4 8 2 6 4 3 6 1h16l5-1h9l9-1 6-4 5-6v-2h2l1-3 8 8 1 2v18l-4 29-5 33-2 6-2-3-5-1-5 1h-28l-1-1v-15l3-5v-10l-4-2-6-7-6-4-3-8-4-2-6-8v-2l-6-1v-15z" fill="#10BD7C"/>
<path transform="translate(1166,181)" d="m0 0 5 4 4 1 3 21 2 27 1 8v27l-15-3v4l-4 1-3-3 3-2-2-5-11-10-7-4h-5l1 2v6l-2 4h-10l-2-5 3-9 6-1v-5l-5-4-3-3v-2l-4-2-8-7-1-2-8-3v-2l-4-1-2-5-4-1-2-12v-7l2-4 5 3 1 2 10 1 6-1h21l26-5 3-1z" fill="#10BD7C"/>
<path transform="translate(1528,379)" d="m0 0 2 1 7 21-1 5-4 4-3 1h-24l-60-2h-45l-16-1h-34l-8 1-1-1-2 2-5-22v-7l7 3 6 1h17l16-1h18l26 1 41 1 38 2 19 2 5-2z" fill="#677180"/>
<path transform="translate(549,458)" d="m0 0h83l14 3h6l3-3 6 1 18 13 19 13 9 6h6l1-2 1 10-112-1v-3l-5-2-31-21-14-9-4-3z" fill="#FCFCFC"/>
<path transform="translate(903,55)" d="m0 0h101l8 6 10 8h21l2 7-3 4h-5l13 10 3 4-6 2h-90l-7-2-17-14-12-9-16-13z" fill="#41FAB5"/>
<path transform="translate(54,431)" d="m0 0 6 3h45l29 2 4-1-1 12-2 5-1 8-1-3-4 1-2 5-4 8-1 1-9-1-11-4-5-2v2l5 2 18 10-1 5-14 8-18 2-12 4-6-1-9-9-4-2-2 2-7-23v-16l3-7 3-9z" fill="#D5DBDE"/>
<path transform="translate(350,170)" d="m0 0 8 6 7 7 4 3v21l-2 9-2 25-2 6-8 4-5 5h-6l-9-5-7-7-11-9-12-11-6-5-5-6-4-2v-2l-4-2-1-2v-14l1-9h1l1 6h15l16 1 16-2 5-3h6v-2h2z" fill="#0FBD7C"/>
<path transform="translate(247,278)" d="m0 0h1l5 17 11 28 2 5v4l-3 1h-78l-5-10-11-23-4-8-2-9h84z" fill="#006047"/>
<path transform="translate(1238,265)" d="m0 0h1v18h84l-1 7-9 25-7 17-2 1h-80l-1-2 9-25 5-18z" fill="#006048"/>
<path transform="translate(1390,459)" d="m0 0h38l20 1 22 2 13 2h8l4-2 3-3 8 6 13 12v2l4 2 12 11 3 1 3-1 2-2-2 9h-109l-5-6-9-7-15-14-11-9z" fill="#FCFCFC"/>
<path transform="translate(1409,282)" d="m0 0 85 1-9 20-14 29-1 1h-82l1-5 9-20 7-17z" fill="#006048"/>
<path transform="translate(745,368)" d="m0 0h1l1 17 4 2h13l31-1 63 1 80-1 2-3h2l1 12v13l-2 1-49-1h-135l-11-2-1-1-1 23h-1v-27z" fill="#5E6E7E"/>
<path transform="translate(418,283)" d="m0 0h85l1 1 4 23 4 16 1 8-1 1-20 1h-60l-4-9-10-37z" fill="#005F48"/>
<path transform="translate(1218,55)" d="m0 0h25l7 2 12 10 16 11 16 13 5 6 2 18-6 4-14 3-12 1h-8l-1 1-14 1-13-2-7-6v-2h-2l-1-2-4-39-1-6z" fill="#41FAB5"/>
<path transform="translate(955,215)" d="m0 0h1v19h20l39 1 20 20 3 4 11 2 3 5v4l-3 3h-7l-15-6-11 2-37 3h-26l-9-5-10-9-11-10-8-7-10-7-11-8-9-8h3l5 3 13 2 2 8 4-1 6 2h11l10-3 7-5 3 1 1 5h3l1-2z" fill="#00AE73"/>
<path transform="translate(285,205)" d="m0 0 5 4v2l5 2 6 7 8 7 9 8 11 9 7 7 8 4h6l8-7 5-2 2-17 1-13 2-2-1 16-2 29-3 19-2 4-25 1h-58v-20l5-43 2-14z" fill="#008256"/>
<path transform="translate(161,98)" d="m0 0h26l-2 16-4 28h-2v2h2l2 9h-16v16l4-1 1-3 3-1 2-4h2l1 2h2l2-10 9-2h6l8-2 3-1 4 4 4 6 10 5 11 7 3 4v3h-24v13l-1 9h-1l-1-14-5-3h-9l-5-2-2-2h-6l-5 4-2 6h-2v5l-4 2v-6l-4 1h-23l-1 8h-1l-1-10-7-8-4-4 1-6 9-5 6-6 7-2v-3h2v-6h-2v-2h-2v-2h-2l2-10 3-23z" fill="#03A461"/>
<path transform="translate(1473,141)" d="m0 0h1l6 42 5 32 4 27-1 3-3-13-10-4-3-3v-2h-2l-3-5-8-7-13-5-6-3v-2l-4-2-9-8-14-11-13-11-6-4-1 3-2-16v-6h3l5 4 9 3 2 1v2l11 2v-2l9-1 2-2 1-11 2 2 4 10v2l5 2v2l15-2 2-2 11-2z" fill="#03A361"/>
<path transform="translate(801,565)" d="m0 0h1l3 13 4 5 5 16 2 4 5-1h7l19 9 13 5 7-1 8-6h2l3-12h1v36l-1 17h-81v-43l1-36z" fill="#FBFBFB"/>
<path transform="translate(970,525)" d="m0 0h1l1 5v26l1 4 5-14h1l1 17-1 3-2 17-2 15v23l2 8 5-1 2-2 11-2 2 1 1-3 5-3 3-3 3-1h7l5 3 1 2 4-1 6-18 4-16 2-1 4-7h3l1 1h1v11l-6 49-1 11-1 1h-80l1-18 1-17 1-4 6-75z" fill="#FBFBFB"/>
<path transform="translate(512,131)" d="m0 0h1l-1 26-2 26h-2l-1 2-8-5-4-5-11-8-10 4h-2l-1 4-9 3-10 4h-13l-3 5-10-1-7-6-1 1h-8l-5-5-2-7h-3v-4l-27 1-3 33h-1l-1-13-10-9-6-4-4-6 1-3-3-2v-2l4-2h7l9-3 7-1 9-3h18l7-2 4-3 10-1 4 2-1 3 3 3 6 2 1-1 11-1 6-2 2 3 4-1h4v-3l7-1 7 2 9 8h5l6 2 5-1 4-8 5-3h2v-13z" fill="#03A561"/>
<path transform="translate(714,416)" d="m0 0h1v80h-1l-1-5-6 1-15-10-17-12-16-11v-1h55l-1-22-7 2-15-2-87-1h-65l-18 1h-8v6h-1l1-15 2-8 1 2 10 1 13-1 27-1 39 1 21 1 65 1 19 1h3z" fill="#9BA6AD"/>
<path transform="translate(843,193)" d="m0 0h1v89l-1 1h-84v-78l5 2 7 7 7 4 5 5 5 8 9 6 14 13 1 5-3 3v4l3 1 18 1 7 7 5 3z" fill="#047955"/>
<path transform="translate(1201,171)" d="m0 0 3 3 7 2 13 11 6 4 6 1 5-5 3-2 8 2 6-1-1-2 12-6 10-3 1-1h13l12 10 7 4 1 3 2-2 1 10v17l-5-2-4-2-1 1h-6l-4-5-1-2-8 1-1 2h-2l-1 2-8 2h-18-3l-2 1-3 2h-7l-7-3-2 1-20-1-7-1-1-1-1-9-1-2-2-23z" fill="#029A60"/>
<path transform="translate(1093,202)" d="m0 0h1v5l4 1 3 5 3 1v2l9 3 5 5 7 6v2l3 1v2l4 2 2 2v6l-7 1-2 10 1 2 10 1 1-10v-2l5-1 7 4 13 12 1 4-3 3 6 1v-4h7l8 3v-14h1v27l-1 1h-83l-1-8-3-47-1-14z" fill="#008256"/>
<path transform="translate(973,434)" d="m0 0 1 2 18-1h50l16 2 1-3v3h2v39l-3 17-2 6-7-4-5-4-7-4-30-23-5-4-27-2-1-1z" fill="#D5DBDE"/>
<path transform="translate(61,197)" d="m0 0h1v8l6 1 6 8v2l5 2 3 8 7 5 6 7 2 1 1 3v7l-3 5v15h28l6-1 5 2 2 4-2 8-2 1h-83l-1-3 9-56z" fill="#018357"/>
<path transform="translate(75,118)" d="m0 0 4 5 8 7 11 3 2 2v6l27 27 8 7 1 5-6 8-5 4-2 1-11 1h-7l-5 1h-16l-8-2-4-4-3-9-1-4h-2v-11l2-13 3-16 2-12z" fill="#0FD187"/>
<path transform="translate(1316,433)" d="m0 0 4 8 2 11 1 1-1 12-4 18-3 13-2 8h-1v-7l-4-2-4-3v-2l-4-2v-2h-3v-2l-4-2v-2h-3l-5-5-6-5-4-5-7-5-3-1-13-1h-16l-2 4-2-25 6-2 15-1 62 1z" fill="#D5DBDE"/>
<path transform="translate(374,499)" d="m0 0h27l3 15 1 1 3 24 3 13 4 28 5 25 1 9h-26l-2-5-7-37-4-26-2-6-2-16-4-22z" fill="#04122B"/>
<path transform="translate(1083,520)" d="m0 0 4 4-2 1 1 6v9 4l4-5 7-4 1-2 5 2 6 4v2l-6-1-5-1-5 4v3l-4 7-5 28-2 11-1 13v20l2 7 6 2h11l16-2 14 1 4-4 9-29 6-16 7-7 1 1-1 13-9 53-2 6h-80l2-16 7-55 3-21 1-13 2-11 2-13z" fill="#FAFAFA"/>
<path transform="translate(1243,55)" d="m0 0h55l2 7 3 22 1 16 3 18 1 26-1 3-6 5-3 6-8-1-18-5-12-9-20-14-6-5 4-1 12 1 10-1 1-1h13l7-1 14-3 5-4-2-17-7-8-17-13-17-12-8-7-6-1z" fill="#26EA9F"/>
<path transform="translate(1088,121)" d="m0 0 5 3 13 10 18 14 14 10 5 4v2l9 3 4 7 10 7v2l-7 3-22 4h-21l-7 1-9-1-4-4-2-1-2 3-2-16-1-9-1-22z" fill="#0FD187"/>
<path transform="translate(1309,401)" d="m0 0h2l8 35-1 4-2-5-1 1-66-1-11 1-6 1-1 4-5-28v-8l8-2 17-1h13l32 1h9z" fill="#6C7686"/>
<path transform="translate(869,125)" d="m0 0 2 3 5-2 9 7 14 11 13 11 9 7 7 6 1 2 7 4 7 6 3 2v2l-6 2-4 2h-10l-9 2-5 3-7 1-1 1h-8l-14-2-5-5-2-8-2-16-2-3h-1l-1-11z" fill="#0FD287"/>
<path transform="translate(287,418)" d="m0 0 9 3h20l18-1h103l25 1 12 2h10l2-2v12l-1 8-3-4-4-1-27-1h-158l-10-1 2-14z" fill="#909AA3"/>
<path transform="translate(517,404)" d="m0 0 1 4h154l21 1h17l5-2v9l-2 8-3 1-28-1-56-1-21-1-42-1-26 1-17 1-4-2-2 2 1-12z" fill="#838C98"/>
<path transform="translate(290,406)" d="m0 0 12 1h28l75-1 35 1 28 2 16 2 3-1v15l-2-2-1 1h-10l-16-2-32-1h-94l-24 1h-12l-10-3 1-8z" fill="#838C98"/>
<path transform="translate(294,121)" d="m0 0 9 6 16 15 9 8 8 6 8 8 6 4v11l-2 3h-2v2l-8 2-3 2-16 2-23-1h-9v-15l2-20 1-2 3-27z" fill="#0FD187"/>
<path transform="translate(1539,417)" d="m0 0h3l2 6-1 10-4 3-3 1-23-1h-157l-9-1-2 1-1-13 6-2 22 1h97l27 1h38l5-2z" fill="#909AA3"/>
<path transform="translate(744,411)" d="m0 0h1l1 11 20 1 39-1h122l5 1h9l2-2 2 3v20h-1l-1-9-4 2-11-1-107-1h-30l-27 1h-12l-7-2-2 1z" fill="#9CA7AE"/>
<path transform="translate(1263,234)" d="m0 0h3v2h31l2 3 1 11v16h-16l6 8 3 5v4h-54l-1-18-2-10v-13l2-1 4 1 2-1 12 6 3-1z" fill="#01995F"/>
<path transform="translate(177,403)" d="m0 0 5 2 13 1h41l16 2 7 1v11l-5 22h-1v-6l-4 1-7-1h-70v2l-5 1-1 2 1-8 8-29z" fill="#76818E"/>
<path transform="translate(759,118)" d="m0 0 8 6 14 14 9 7 5 5v2h2v2l5 1 9 5 5 7 11 7 9 9v2l-17-3-6-4-4 2-10 3h-7l-13 3h-6l-3 1-6-1h-4l-1 3z" fill="#10D388"/>
<path transform="translate(950,99)" d="m0 0h1l2 43 7 2v9l-6 5-5 1-4-1-2 2h-5l-2 3-5 2-2 5-1-2-4-2-9-8-11-9-16-13-12-9-6 2-1 26h-1v-51l4 2 5 15 3 5v2l4 2 1 1h8l9-2v-3l4-3 2-4h10l4 1 2-12 2 3 2 7 2 2 4-1h10l5 5z" fill="#13AE67"/>
<path transform="translate(971,403)" d="m0 0 2 3 18 2h15l37 1 11-1 1-3h2l3 24v8h-12l-6-1h-68l-1 5h-1l-1-15z" fill="#76818E"/>
<path transform="translate(1181,110)" d="m0 0 5 5 2 5h2l4 4 2-9h1l2 21v9l2 1-7 3-15 2-18 6h-2l-1 2-8 1-6 1h-3l-17-12-11-9-14-10v-2h8v2l4 1 7 2 6 2 3 2 1-4 6-2 12-2 10-2 11-3 3-1 3-6 3-1 1-4 4 1z" fill="#12AF67"/>
<path transform="translate(63,404)" d="m0 0 10 3h46l15 2h10l2-1-1 9-6 22-2-3-7 1-28-2h-42l-5-3-1-5 7-21z" fill="#838C98"/>
<path transform="translate(585,149)" d="m0 0h17l5 2v15l-1 9 11 8 3-2v21l-1 14-2-3-1-9-5-4-2-3-9 4-13 8-5 2-5-1-2 5-10 1-5-5-9-6-12-1h-3v-18l1-11h1v11l4 1 3 2 9 1 9 2h8l10-5 6-2 11-7 1-6-5-1h-13l-2-5v-9l2-6z" fill="#04C781"/>
<path transform="translate(176,214)" d="m0 0 5 2 9 10 3 3-1-5 1-2 4 2 1 7 5 8 6 7h22l-3 2-10 1-3 1 2 7h6l5-3-2 4-1 3 6 6-1 3-12 3-25 2h-11l-12-3-5-3v-13l2-11 1-12 3-3h1l1-12 1-3z" fill="#06A86F"/>
<path transform="translate(1394,165)" d="m0 0 4 2 9 7 13 11 14 11 6 5 1 2 10 4 9 4 10 9 2 8-1 1-8 1h-24l-9-3-13-2-4-1-5-1-7-3-4-25-3-19z" fill="#0FBD7C"/>
<path transform="translate(1108,408)" d="m0 0h41l12 2h7l1-2h2l3 18v8l-3 2h-21l-55-1-5 2-1 11h-1l-3-26v-13l4 1z" fill="#76818E"/>
<path transform="translate(319,458)" d="m0 0h12v1h8l11-1h53v1l-17 1 19 3 4 2 2 5-3 10-5 6v8l3 9 4 9-1 4-5-3-2-5-2-9-16-1-8-2-8-5-12-8-5-2-19-12-13-8z" fill="#FCFCFC"/>
<path transform="translate(678,235)" d="m0 0h51l1 1 1 13v10l-1 7-1 17h-70l-39-1-5-7 1-2h8l5 1h28l12 2h14l11-6 7-6 2-5-7-8-10-10-8-5z" fill="#008357"/>
<path transform="translate(1397,124)" d="m0 0h7l7 4h14l8-3h8l3 1 16 2 10 5 1-7h1l1 7v22l-12 2-2 2-15 1v-2l-5-2-5-12-1 9-3 3h-9v2l-9-1-2-1v-2l-11-3-7-5h-2l-1-14 1-6z" fill="#12AF67"/>
<path transform="translate(715,371)" d="m0 0h1v58h-1l-1-33-3 3-8 2h-7l-8-1-18-1-21-1-37-1-84-1-8-1-2-1 1-15 2-1 2 5 7 2h106l18 1 24 1h9l16 1 7-1 4-1z" fill="#5C6779"/>
<path transform="translate(823,115)" d="m0 0 7 1 5 9v2h2v3h2l1 5 1-17h1l1 27v45l-7-6-10-10-11-7-4-5v-2h-2l-1-4-12-6-11-11 1-5 10-2 7-2 2-5 4-3 8-2 3-3h3z" fill="#13B067"/>
<path transform="translate(255,216)" d="m0 0 1 4-5 42-3 16-1 5-80 1-4-1v-12l1-8h1v6l4 1 9 3 4 1h11l25-2 12-3-2-4-4-5 2-4-3 2-6-1-2-4v-3l3-2 10-1-4-6 1-5 4-5 5-4 3-6 1-1h7l2 1 7-2z" fill="#008B59"/>
<path transform="translate(1449,532)" d="m0 0h72l9 1 2 1-1 15-3 7-5 17-4 8-5 15-5 20-7 19-5 11-3 8-1-3 1-3h-2l3-12 13-40 3-7 5-17 9-27 2-5h-84l-12 42-9 30-1 2h-26l1-8 9-29 4-14 4-16h3l1 7-2 9-2 7-1 7-2 4-4 20v5l4-1 4-5 4-1 11-35 5-13 8-16z" fill="#0B1326"/>
<path transform="translate(1528,379)" d="m0 0 2 1 6 18v3h-2l-2-5-5 3-4 1-86-2-28-1h-63l-7-2-4-2-1-5v-7l7 3 6 1h17l16-1h18l26 1 41 1 38 2 19 2 5-2z" fill="#5C6779"/>
<path transform="translate(1172,432)" d="m0 0 1 2h2l3 22-1 12-2 6-2-1v-2l-4-2-12-9-48-1-19-1-1-10v-11l7-3 54 1h21z" fill="#D5DBDE"/>
<path transform="translate(184,114)" d="m0 0 1 2 5 2 4 5 8 7 13 11 13 10 10 8 10 1 2 3v7l5 3 2-6 3-2 1 1v12l-2 11-2 2-1-10-6-2h-5l-1 17-1 3h-26v-10l1-13h24l-3-6-11-7-10-5-4-5-2-5-5 1-8 2h-8l-3 1h-4l-1 10h-4v-2h-2l-2 5-3 2 3 1v1h-8l-1-2v-11l1-3 3-1 13 1-2-9h-2v-2h2l1-12z" fill="#03AB6E"/>
<path transform="translate(743,458)" d="m0 0h38l9 8 25 17 16 12h-3l-10-2h-18l-49-1-6-4-1 11h57v72h-1v-71h-57z" fill="#9AA5AC"/>
<path transform="translate(1350,454)" d="m0 0 2 4 35 1 9 6 15 14 8 7 7 6-3 3-8 1h-13l-8 3h-11l-10-4h-15l-4-5-3-9-1-8-3 3 1-9z" fill="#9CA7AE"/>
<path transform="translate(146,117)" d="m0 0h2v3h3l2 12v11h2v2h2v2h2l1 4-1 2h-2v3l-8 4-6 6-6 3h-2l-1 5-8-6-27-27v-6l-6-4 1-2h10l3 1 5-5 9-6h20z" fill="#12B067"/>
<path transform="translate(870,183)" d="m0 0h1l1 20 7 6 6 8 11 10 15 10 8 7 11 10 8 7 7 6 8 4 1 5 5 2 3 4h-12l-9-11-2-4-10-5-13 1-8 1h-10l-1 4-6 1-5-2-2-7-4-8-6-9-2-1-2-22z" fill="#008C5A"/>
<path transform="translate(510,451)" d="m0 0h1v7h37l5 4 14 9 34 23v3l-4-3-26-6h-8l-4 1v2l-9 2-10-1-9 3-14 1 1 25h-1l-7-57z" fill="#9AA5AD"/>
<path transform="translate(93,222)" d="m0 0 9 3 1 1h14l13-3 7-1 4 4 2-2-3 25-4 23-2 1-1-3-5-1-5 1h-28l-1-1v-15l3-5v-10l-4-2-6-7-2-2 3-1 3 1 1-4z" fill="#00AF73"/>
<path transform="translate(451,235)" d="m0 0h32l1 1-1 27-1 2h-27l4 8v3l-6 3h-16l-8-3-10-2v-21l1-11 3-3h5l5 5 2 4h2l5 5 6 2 1-12z" fill="#019960"/>
<path transform="translate(200,594)" d="m0 0 2 3 3 5 7 6 8 12 7 6 15 7 14 1h17l4-3 1-3 1-20 1-10h2l4 15 5 18 3 14v5h-80l-6-21-8-30z" fill="#FAFAFA"/>
<path transform="translate(188,107)" d="m0 0 4 2 4 9 4 3 9 1h19l9 2 10 1h5l4-1v-2l4-2 4 1 1-6 2 1-1 15-3 28-2 7-3 1-3 6-5-2-1-2v-6l-1-2-10-1-16-13-14-11-10-9-6-5-5-5-2-1 1-4z" fill="#25E99F"/>
<path transform="translate(1236,457)" d="m0 0h16l13 1 6 3 8 7 4 4v2l4 2 3 2v2h3l4 4v2h3l5 6 7 5v8l-4 16h-1l-1-12-4-12-4-6-8-5-23-4h-8l-9 6-3 4 5-2h14v1l-10 2-13 11-8 11-5 1-4-3v-8l3-16 2-14 3-13z" fill="#FAFBFB"/>
<path transform="translate(717,538)" d="m0 0 3 3 3 6 1 14 1 30v51h-2l-1 10-3 4-3 1h-174l-7-3-1-3 13-1 35-1h124l14 1-1-12-1-61z" fill="#0B0D1B"/>
<path transform="translate(71,372)" d="m0 0h2v8l8 4 20-1 32 3 17 4v9l-3 11h-3-10l-16-2h-45l-10-3-2 1 3-11 6-19z" fill="#677180"/>
<path transform="translate(295,380)" d="m0 0 2 4 9 2h35l34-1 59-1 29 1 18 2h8l1 1v14l-1-4-2 1h-10l-14-2-31-1h-83l-17 1h-19l-9-1-10-5-2 1 1-8z" fill="#5C6779"/>
<path transform="translate(969,377)" d="m0 0h1l2 7h34l18 1 19 2 7-1 3-4 2 6 1 17-2 3-12 2-40-1h-14l-15-2-1-1-2 4-1-14z" fill="#6C7686"/>
<path transform="translate(48,457)" d="m0 0h28l8 2 26 14 10 6-1 5-14 8-18 2-12 4-6-1-9-9-4-2-2 2-7-23v-6z" fill="#9CA7AE"/>
<path transform="translate(287,457)" d="m0 0h19l9 1 22 13 14 9 4 4h-2l-1 4-11 3-2 1h-26l-4 1h-10l-4-2-5 1-3 1v5l-2-4-2-11-3-11-1-12 1-2z" fill="#9CA7AE"/>
<path transform="translate(1177,207)" d="m0 0h1l2 27 1 8v27l-15-3v4l-4 1-3-3 3-2-2-5-11-10-7-4h-5l1 2v6l-2 4h-10l-2-5 3-9 6-1v-5l-5-4-3-3v-2l-4-2-8-7-1-2-8-3v-2l-4-1-2-4 5 1 5 4 16 7 11 5h8l15-3 14 1 5 1z" fill="#01A76C"/>
<path transform="translate(541,96)" d="m0 0 4 2 4 22 5 2 4 3 3 1 2 5 3 1v-5l4 2 5 12 1-3h5l2-5 4-4 12-5 8-1 1-3 7 1 5 8 3 1v15l-2 38-4 1-11-8-1-4 1-6v-15l-4-1h-17l-7 3-5-3-9-11-12-10-8-7-2-3-2 2z" fill="#12AE67"/>
<path transform="translate(618,234)" d="m0 0h56l7 3 8 6 7 7-1 5-5 7-2 1-2 3-1-4-3-2h-6l-2 4h-2v2l-9-1-9-2h-13l-18 2-5 2-5-1v-2l-7-2-10-6v-3l5-1 10 1 9-3 8-5 8-2v-2l27-3 7-2-52-1z" fill="#01A76C"/>
<path transform="translate(1164,380)" d="m0 0 3 4 3 18v6l-2 3h-7l-12-2h-41l-20 2-2-1-1 5h-1l-2-16v-16l1 2 7 1 68 1 5-1z" fill="#6C7686"/>
<path transform="translate(494,223)" d="m0 0 4 2 4 1v3l3 1 1-5h1v11l-3 47h-86l-1-6 1-13h1v10l10 1 8 3h17l5-3-4-7v-3h27l2-21 1-9 4-5 2-6z" fill="#008357"/>
<path transform="translate(502,205)" d="m0 0h2l2 5 2-3-1 18-1 6-4-2v-3l-5-1-3-1h-3l-2 7-3 4-2 16h-1v-15l-32-1-1 8-2 12-6-1-5-4v-2h-2l-5-5-2-3h-5l-2 1 1-18 1-5h1l1 5 2-2 3 2 7-1 2-2v-2l5-2h7l2 1h10l11-4 9-1 4-3h13z" fill="#00935E"/>
<path transform="translate(285,205)" d="m0 0 5 4v2l5 2 6 7 8 7 9 8 11 9 7 7 8 4h6l8-7 5-2 2-17 1-13 2-2-2 32-3 8-7 6-3 5-6 5h-5v-4l-5-1-2-2h-19l-8-3-2-5v-4l-9-2-8-4-5-9-2-1v-15l2-14z" fill="#008C5A"/>
<path transform="translate(166,579)" d="m0 0h2l15 52 4 12v7h-79l-4-10-7-21v-6h2l6 9 5 7v2h2v3h2v2l7 2 18-1h5l2-1 4 1v-2h14l3-4v-10l-4-24v-10l2 4 1 5z" fill="#F8F9F9"/>
<path transform="translate(842,196)" d="m0 0h1v76l-1 2-5-2-7-7-18-1-4-4 2-4 1-4-7-8-8-7-10-7-3-6-5-5 7 2 14 6 25-3 13-1 3-3z" fill="#00AF73"/>
<path transform="translate(973,442)" d="m0 0h1l1 15 27 2 10 8 26 20 4 4-6 1-4-1-2 1-21 2-3 1-20 1-12-6-2 2z" fill="#9BA6AD"/>
<path transform="translate(183,377)" d="m0 0 2 3 2 4 6 2h26l27 1 17 3-1 16-2 9h-1l-1-5-11-2-18-1h-41l-9-2-3-1 1-8 4-15z" fill="#6C7686"/>
<path transform="translate(512,108)" d="m0 0h2l-1 23-2 18-5 3h-2l-2 6-3 4-9-1-3-1-4-1-11-9-2-4-4-2-10-8-9-7-7-6 3-2h11l5 1 16 2h8l13 3 3 2h5l4-7z" fill="#25EA9F"/>
<path transform="translate(350,170)" d="m0 0 8 6 7 7 4 3v15l-2 2h-5-4v-2l-6 2h-6l-3 1-7 1-18 2-7 2h-9l-16-3-1-1v-14l1-9h1l1 6h15l16 1 16-2 5-3h6v-2h2z" fill="#05C782"/>
<path transform="translate(1489,248)" d="m0 0h1l4 25v10l-12 1-71-1-2-1-4-25 1-3 11 7 3 1 2 5 4 3h8l2-1 1-3 9-1h16l2 1-1 5h6v-5l9-9 5-1 4 1 1-1z" fill="#01995F"/>
<path transform="translate(1475,173)" d="m0 0h1l1 6 2-2 6 38 4 27-1 3-3-13-10-4-3-3v-2h-2l-3-5-8-7-13-5-6-3v-2l-4-2-10-9 2-4 4 3 5-4 7-3h8l10-3 10-2 1-2h2z" fill="#019960"/>
<path transform="translate(745,368)" d="m0 0h1l1 17 4 2h13l31-1 63 1 80-1 2-3h2v8l-2 2v4l1 2h-11v-2l2-1-3-2h-11l-19-1h-25l-37 2-19 2h-26l-27 2h-18l-2-1-1-5z" fill="#5C6779"/>
<path transform="translate(61,197)" d="m0 0h1v8l6 1 6 8v2l5 2 3 8 7 5 6 7 2 1 1 3v7l-3 5v9l-1 6h-6l-11-6h-10l2-4 5 1-2-5-6-5h-7l-4-3v-10z" fill="#038C5B"/>
<path transform="translate(871,235)" d="m0 0h1v7l3 1 7 11 4 7 1 6 10 1 1-4 26-3 8 1 7 5 8 10 3 3v2h12v1h-89l-2-1z" fill="#008357"/>
<path transform="translate(1291,585)" d="m0 0h1v7l-11 49-3 9h-80l1-9 3-16 4-18 2-7h1l1 12 3 7 3 13 3 2 17 2 28 1 7-2 8-13h2l3-11z" fill="#F8F9F9"/>
<path transform="translate(220,200)" d="m0 0h21l7 6 6 1 3-1-1 10-3 5-7 1-1-1h-7l-5 8-4 2-2 4-2 2 1 5 1 4-11 1h-7l-9-10-3-6v-7l4-1-2-4 4-4 14-7 6-4-4-2z" fill="#00925D"/>
<path transform="translate(951,247)" d="m0 0h21l3 1 1 8 1 10 2-2 18-4 11-4 12-7 8-1 7 7 3 4 11 2 3 5v4l-3 3h-7l-15-6-11 2-37 3h-26l-3-1-1-3v-9l1-11z" fill="#04A36B"/>
<path transform="translate(1241,384)" d="m0 0 60 1h5v4h2l2 7v5l-5 3h-14l-27-1h-15l-17 1-6 1-1 3-3-16v-7z" fill="#5C6779"/>
<path transform="translate(1223,113)" d="m0 0 1 2h2l4 5 14 11 16 11 12 9 21 6 5 1 2-6 5-5h2v-13h1l3 23 1 4v19l-12-7-16-11-10-7h-5l-4 4-10 3-11-6-7-6-12-5-5-1 3-2 2-1-2-20z" fill="#09AB71"/>
<path transform="translate(696,251)" d="m0 0 7 6 1 3-4 6-9 7-8 4h-14l-12-2h-28l-13-2-1 3-4-1-2-7-9-2-3-2-1 5-1 1h-15l-4-2-1-2v-8l3-5h6l-1 8-1 3 3-1 1-8 4-3 5 1 3 3 10 6 5 2 1 2 6-1 10-2 11-1h13l18 4v-2l6-5 5 1 4 3 5-5z" fill="#09A26C"/>
<path transform="translate(811,177)" d="m0 0 5 2 7 3 9 1 6 2 4 4v6l-3 6-4 2-7-4h-9l-20 2-17 4h-10l-8-4-5-2v-10l1-3 7-1 4 1 3-1 9-1 9-2h9l9-4z" fill="#04C781"/>
<path transform="translate(869,150)" d="m0 0h1l1 10 2 1 2 10 2 13 3 7 10 2 6 1h8l1-1 10-2 2-2 10-2h9l6-3 5-1 6 5v14l-1-2-4-1-4-3-6 2-9 6-5 4-10 5-24-1-10-4-4-7-4-8-1-1-2-28z" fill="#04C781"/>
<path transform="translate(1476,228)" d="m0 0 9 3 2 6 2 8v11l-3 2-5-1-5 3-6 6-1 5-3 1-3-1 1-5h-27l-1 4-2 1h-8l-6-5v-4l-5-1-10-7-3-20 1-3v2l4 1 5 8 11 11 7 2 10-1 22-3 11-8 3-5z" fill="#05AA6F"/>
<path transform="translate(744,402)" d="m0 0 2 3 11 2h135l37 1 12 1 1-2 2 2v7l-5 2-8-1-37-1h-13l-54-2h-31l-28 2h-15l-6-3-3-2z" fill="#76818E"/>
<path transform="translate(1536,404)" d="m0 0h2l1 6h-2l-1 5-7 3-47-1-31-1h-51l-29-1-28 1-2 3-1-5v-7l3 1 8-1h34l25 1h42l59 2h18l6-2z" fill="#76818E"/>
<path transform="translate(602,499)" d="m0 0 108 1v1l-8 2-4 2-21 2-56 1-8 1-2-6h-2l-1 29h100v4l9 1v1h-114z" fill="#01020F"/>
<path transform="translate(519,564)" d="m0 0 4 1 2 10 1 1 109 1 2 36h-91l4-2h3v-4l14-1h60v-22l-2-1-95-1-5-1v2l-4-1-2-4-1-13z" fill="#050918"/>
<path transform="translate(290,406)" d="m0 0 12 1h28l75-1 35 1 28 2 16 2 3-1v15h-1l-1-7-65-3-60-1h-60l-10-3-1-4z" fill="#76818E"/>
<path transform="translate(783,55)" d="m0 0h58v45h-3l-12-11-16-12-16-13-11-8z" fill="#40FAB5"/>
<path transform="translate(517,404)" d="m0 0 1 4h154l21 1h17l4-2v7l-2 3-3 1h-10l-27-2h-48l-44-1h-61-3l-1-4z" fill="#76818E"/>
<path transform="translate(714,416)" d="m0 0h1v7l-3 8-9 1-7-1-18-1-60-1-32-1h-36l-25 2-9-1v-2h-2l1-8 1 2 10 1 13-1 27-1 39 1 21 1 65 1 19 1h3z" fill="#909AA3"/>
<path transform="translate(535,202)" d="m0 0h1v6l5 2 6 5v2l4 2 6 5v2l4 2 15 10 3 7v7l-3 6v10l-4-1-7-9-12-5-8-6-8-4-2-4z" fill="#078E5E"/>
<path transform="translate(316,643)" d="m0 0 3 1 2 5h186l2-2v7l-5 2-6 1-110 1-48-1-12-1-8-4z" fill="#020513"/>
<path transform="translate(1015,235)" d="m0 0h52l1 3 2 33v12h-9l4-2-11-14-3-7-1-1-15-2-7-8-13-13z" fill="#008B59"/>
<path transform="translate(65,174)" d="m0 0 1 2h2l4 8 2 6 4 3 6 1h16l5-1h9l9-1 6-4 5-6v-2h2l1-3 8 8 1 2v12l-2 2-5 2-5 4-2 3h-9v-4l2-1-8-1-5 1-14 1-12 4-5-1-6-4-7-6-5-5v-10z" fill="#04C781"/>
<path transform="translate(1541,423)" d="m0 0h3l-1 10-4 3-3 1-23-1h-157l-9-1-2 1v-10l17 2h78l65 2h31l4-2z" fill="#9CA7AE"/>
<path transform="translate(966,535)" d="m0 0h1v26l-4 50-1 4-2 29v6l76 1v1h-5l-2 4-72 1v4l3 1-4 3-10-2v-9h5l1-6 2-29 2-18 1-15v-13l5-33 3-2z" fill="#02091B"/>
<path transform="translate(437,53)" d="m0 0h80l-1 36-1 15h-1l-1-8-4-2-15-15-16-12-14-11v-2h-27z" fill="#1DB66A"/>
<path transform="translate(759,314)" d="m0 0h7l2 1h19l18 3 11 1h13l13 4v8l-1 2h-82z" fill="#006042"/>
<path transform="translate(46,462)" d="m0 0 2 3 12 38v3h2l2 9 2 7 7 21 10 29 5 17 5 14 4 14 11 32 2 1 74 1-3 1-2 4-51 1-19-1-6-4-6-14-15-48-9-27-3-12-7-21-5-17-1-9-9-28-3-11z" fill="#0A0E1D"/>
<path transform="translate(744,411)" d="m0 0h1l1 11 20 1 39-1h122l5 1h9l2-2 2 3v20h-1l-1-16-3 3h-13l-14-1-27-1-69-1h-14l-39 2h-11l-8-3-1-4z" fill="#909AA3"/>
<path transform="translate(209,53)" d="m0 0h65v12l-4 36h-1l-1-8-9-2-5-8-8-7-11-9-7-7-6 1-1-6-7 1-5-2z" fill="#1AB96A"/>
<path transform="translate(759,205)" d="m0 0 5 2 7 7 7 4 5 5 5 8 9 6 14 13 1 5-3 3v4l-7-2-10-7-12-5-6-4-8-1-5 3h-2z" fill="#008C5A"/>
<path transform="translate(1166,181)" d="m0 0 5 4 4 1 2 15v18h-1l-1-13-4-1v-2l-4-2-3-2v-2l-10 2-5 2-9 1-5 2-27 1-9-2-6-2-1-13 2-4 5 3 1 2 10 1 6-1h21l26-5 3-1z" fill="#04C781"/>
<path transform="translate(609,196)" d="m0 0 2 4 3 1v2l3 1 2 12v9l-2 9-2-3-3-3v-2l-4-1-20 1-11 1-19-8-12-9-7-3-3-1 1-2 3-1 11 1 10 7 1 3 7 1 6-1 2-4 3-1 3 1 9-5 9-6z" fill="#0FBE7D"/>
<path transform="translate(660,54)" d="m0 0h73v24l-1 21h-5l4-1v-3l-4-1-9-8-15-10-11-9-9-11-23-1z" fill="#1AB568"/>
<path transform="translate(1356,650)" d="m0 0h98l35 1-1 4-2 1-17 1-6 1h-77l-70-1-6-2-1-2-4-2z" fill="#010310"/>
<path transform="translate(59,417)" d="m0 0 4 3 3 1h60l13 1h2l1-2v8l-3 11-2-3-7 1-28-2h-42l-5-3-1-5 4-9z" fill="#909AA3"/>
<path transform="translate(299,218)" d="m0 0 5 2 10 3 15 1 10 1h8l7 2 1 1h7l3-1 1-2-1 16-2 6-8 4-5 5h-6l-9-5-7-7-11-9-12-11-6-5z" fill="#00AF73"/>
<path transform="translate(286,425)" d="m0 0 12 4 33-1h52l67 1h33l2-2v14l-3-4-4-1-27-1h-158l-10-1 2-8z" fill="#9CA7AE"/>
<path transform="translate(161,98)" d="m0 0h26l-2 16-4 28h-26v-9l3-23z" fill="#03132B"/>
<path transform="translate(291,398)" d="m0 0 2 2 6 1h145l26 2 6 1h12v13h-1l-1-6-5 1-16-2-25-2-36-1-91 1h-13l-10-1-2 3 1-8z" fill="#6C7686"/>
<path transform="translate(1243,55)" d="m0 0h55l2 7 3 22v11l-5 1-7-7-17-13-17-12-8-7-6-1z" fill="#1ABB6A"/>
<path transform="translate(203,421)" d="m0 0 33 1 18 2 2-1v10l-2 9h-1v-6l-4 1-7-1h-70v2l-5 1-1 2 1-8 3-8 3-3h14z" fill="#9BA6AD"/>
<path transform="translate(1093,202)" d="m0 0h1v5l4 1 3 5 3 1v2l9 3 5 5 7 6v2l3 1v2l4 2 2 2v6l-7 1-2 10 1 2 10 1v1h-11l-7-2-15-9-6-3-2-6-2-26z" fill="#008B59"/>
<path transform="translate(1322,453)" d="m0 0h1l-1 12-4 18-3 13-2 8h-1v-7l-4-2-4-3v-2l-4-2v-2h-3v-2l-4-2v-2h-3l-5-5-6-5-4-5-8-6 2-1h52z" fill="#9AA5AD"/>
<path transform="translate(1361,129)" d="m0 0h5l4 3 2 6h-2v-2h-2l1 3 2 2 1 7-3 6-1 7 2 5 1 5-1 5-10-1-2-2 1-5-2-5v-6h-2v-2l-8-4h-2v2l-5 1-1 6 2 6 1 9-2 4-6-2-2-5-1-4v-3l3-7v-4h2l-1-7 3-10 4-4 10-1z" fill="#041B30"/>
<path transform="translate(1058,457)" d="m0 0 3 1v18l-3 17-2 6-7-4-5-4-7-4-30-23-5-4v-2l12 2 23 5 6 1 7-5 2-3z" fill="#F9F9FA"/>
<path transform="translate(205,457)" d="m0 0h42l5 5 5 25 2 12-2-2-2-8-1 3-4 1-14-9-21-13-20-12v-1z" fill="#9BA6AD"/>
<path transform="translate(1339,401)" d="m0 0h33l26 2h95l20 1h17l4-3h3l-1 5-4 4-3 1h-24l-60-2h-45l-16-1h-34l-8 1-1-1-2 2z" fill="#6C7686"/>
<path transform="translate(427,458)" d="m0 0h55l3 16 2 18v5l-1-2-5-1-23-15-31-20z" fill="#9CA7AE"/>
<path transform="translate(890,457)" d="m0 0h56l-1 39h-1l-1-17-3 8-3 5-4-2-17-12-21-16z" fill="#9BA6AD"/>
<path transform="translate(1337,390)" d="m0 0 8 2 27-1h95l40 2 9 1h11l3-1 1-2 3 1 2 9h-2l-2-5-5 3-4 1-86-2-28-1h-63l-7-2-2-2z" fill="#5E6D7D"/>
<path transform="translate(1113,422)" d="m0 0h29l24 1 6-1 2 4v8l-3 2h-21l-55-1-5 2-1 11h-1l-1-9v-16h13z" fill="#9BA6AD"/>
<path transform="translate(1463,55)" d="m0 0h52l1 13 2 10 2 18-6-3-10-8-20-14-12-8-9-7z" fill="#0FD086"/>
<path transform="translate(1257,422)" d="m0 0h37l16 2 3 1v-2h3l3 13-1 4-2-5-1 1-66-1-11 1-6 1-1 4-1-5v-12l9-1z" fill="#8F99A3"/>
<path transform="translate(659,458)" d="m0 0h55l1 38h-1l-1-5-6 1-15-10-17-12-16-11z" fill="#9DA8AF"/>
<path transform="translate(1499,459)" d="m0 0h53l1 5-9 27-7 3-8-7-10-8-5-6-8-7-7-6z" fill="#9DA8AF"/>
<path transform="translate(972,421)" d="m0 0 1 2h82 4l1 6v8h-12l-6-1h-68l-1 5h-1z" fill="#8F99A2"/>
<path transform="translate(1181,597)" d="m0 0h27l-3 21-2 7-3 16-2 9h80l1-5h4l1-7 1-3 2 1-3 13h-2l-1 4-4 4-8 1-50-1-18-1-5-5 1-8h-2v-19l-1-6 2-3v-10l-9-3v-2l-6-2z" fill="#090E1F"/>
<path transform="translate(1263,234)" d="m0 0h3v2h31l2 3 1 11v15l-17 1h-17l-2-6-1-15z" fill="#10BD7D"/>
<path transform="translate(715,385)" d="m0 0h1v44h-1l-1-33-3 3-8 2h-7l-8-1-18-1-21-1-37-1-84-1-8-1v-3h13l24-1h103l14 1h12l21 2 6-2z" fill="#5D6D7D"/>
<path transform="translate(714,398)" d="m0 0h1v9l-6 3h-19l-22-1h-140l-12-1v-5l4-2 12 2h62l41-1 37 1 25 1 6 1 9-1z" fill="#6C7686"/>
<path transform="translate(964,54)" d="m0 0h84l9 1 1 41-6-3-8-7-8-6 2-1 5-1 1-4-1-4h-21l-13-11-5-3-40-1z" fill="#1DB56B"/>
<path transform="translate(886,499)" d="m0 0 51 1v1l-20 3-10 1-9 4-3 3-1-9-1 3-2 60 4 1-2 6-2 5-2 2-2 31-1 25-3 5-2 4v-21l2-51 2-40z" fill="#010311"/>
<path transform="translate(1439,545)" d="m0 0h1l-1 10-9 31-2 6-6 20-1 2h-26l1-8 9-29 4-14 4-16h3l1 7-2 9-2 7-1 7-2 4-4 20v5l4-1 4-5 4-1 11-35 5-13 3-5z" fill="#0C0F1E"/>
<path transform="translate(1177,207)" d="m0 0h1v28l-6 5-5 8-7 1-8-3-8-5-8-4-12-9-5-5-7-4-8-3v-2l-4-1-2-4 5 1 5 4 16 7 11 5h8l15-3 14 1 5 1z" fill="#00AE73"/>
<path transform="translate(704,259)" d="m0 0 6 4v2h2v2h2v2l3 1 3 8v4h-100l-5-7 1-2h8l5 1h28l12 2h14l11-6 7-6z" fill="#00995F"/>
<path transform="translate(1016,143)" d="m0 0h45l2 16v20l-1-2h-6l-11-9-19-14-8-6-3-4z" fill="#0ED086"/>
<path transform="translate(969,377)" d="m0 0h1l2 7h34l18 1 19 2 7-1 3-4 2 6v6l-5 3h-51l-21-1-6-2-1-1-2 3z" fill="#5C6779"/>
<path transform="translate(318,81)" d="m0 0h13l20 1v18l-1 8-1 1h-32v-27z" fill="#8EB6AC"/>
<path transform="translate(1343,440)" d="m0 0h2l1 6 2 1 2 7v10l-10 41-3 14-1 1-2 11-4 16-5 21-5 18-3 13-4 16-5 22-2 1v-2h-3l-1 2 1-10 13-51 2-13 6-21 8-32 4-6 4-13 4-17 2-7v-16l-2-1z" fill="#0A0D1C"/>
<path transform="translate(541,117)" d="m0 0 4 5 9 8 10 8 9 10 1 4-4 4-5 1h-10l-9 7h-5l-2 3v-43z" fill="#26E99F"/>
<path transform="translate(233,483)" d="m0 0 5 1 12 8h4l1-4 2 4 4 14 14 59 2 9v5l-2-3-3-10-2-2-7-3-7-9-1-19 2 3 2 7-6-28-5-12-6-9-9-10z" fill="#F9FAFA"/>
<path transform="translate(766,242)" d="m0 0 8 1 10 6 9 4 11 7 8 3 18 1 2 3-6 2-11 1h-21l-8 2-7-4-7-7-4-6-6 1-3 3v-13z" fill="#008357"/>
<path transform="translate(694,538)" d="m0 0h23l1 12 1 27v14h-1v-12h-2l-1-9-5-2-11-9-15-9-13-8-2-3z" fill="#F4F5F6"/>
<path transform="translate(71,372)" d="m0 0h2v8l8 4 20-1 32 3 17 4v9l-2-1h-11l-14-2-20-1h-26l-7-3-3-4z" fill="#5C6779"/>
<path transform="translate(1108,83)" d="m0 0h32l1 26-1 1-32-1-1-5v-20z" fill="#8EB6AC"/>
<path transform="translate(227,256)" d="m0 0h1l3 9 8 8 2 9-5 1-69 1-4-1v-12l1-8h1v6l4 1 9 3 4 1h11l25-2 12-3-2-4-4-5z" fill="#00995F"/>
<path transform="translate(745,402)" d="m0 0 6 1 11 1 18-1h77l66-1h19l1 6-2 1-49-1h-135l-11-2z" fill="#6C7686"/>
<path transform="translate(1319,234)" d="m0 0h1l1 15 2 11 1 7v16h-31l-3-8-6-7v-2l16-1 1-2 4-2 9-11 3 1v-2h2z" fill="#008156"/>
<path transform="translate(294,388)" d="m0 0 5 1 8 3 29-1h125l24 3 4 1v3l-2 1h-10l-14-2-31-1h-83l-17 1h-19l-9-1-10-5z" fill="#5E6E7E"/>
<path transform="translate(872,282)" d="m0 0 3 2 2 12 1 10 5 10 5 4 1 2 11 2 6 2 13 2 9 2 3 3h-62l-1-4 3-42z" fill="#006042"/>
<path transform="translate(1164,380)" d="m0 0 3 4-1 11-5 3h-9l-4-1h-49l-13-1-2-1-2 4v-16l1 2 7 1 68 1 5-1z" fill="#5C6779"/>
<path transform="translate(1235,212)" d="m0 0 10 4 3 4 4 1v3h6l4 2 1-1 12 1 2 2-3 3h-2l-2 4-7-1-2 9-2 4-4 1-12-6-2 1-4-1-1 6h-1l-2-28v-6z" fill="#008B59"/>
<path transform="translate(165,256)" d="m0 0 4 1v3l5 2h8l12-2 6-4h6l6 5 10 2h2l1-2 6 6-1 3-12 3-25 2h-11l-12-3-5-3z" fill="#03A169"/>
<path transform="translate(1314,508)" d="m0 0h1l1 10-3 7-2 11-2 7-1 5-3 6-2 12-2 7v7l-7 31-5 20-2 4h-2l-2 10h-3l1-8 11-49 2-7 2-10 9-39 2-6 3-16z" fill="#0E1220"/>
<path transform="translate(1161,559)" d="m0 0h27l-1 9-5 25-2 1-2-11v-8l1-1v-6l-6-2-6 1-3 4-2 18-2 9-2 18-5 22-5 5v-10l8-48 3-14z" fill="#080E20"/>
<path transform="translate(494,223)" d="m0 0 4 2 4 1v3l3 1 1-5h1v11l-2 27h-2l-1 2-5-5-7 2h-7v-11l2-16 4-5 2-6z" fill="#008A59"/>
<path transform="translate(114,47)" d="m0 0h55l6 1h19l3-1h42l11 1 9 3v1l-174 1 4-2 5-3z" fill="#020719"/>
<path transform="translate(176,214)" d="m0 0 5 2 9 10 7 6 2 9h3v5l-5-2-14 3-5 5h-5l-4-5v-15l2-2h1l1-12 1-3z" fill="#00AF73"/>
<path transform="translate(841,118)" d="m0 0h1l1 27v45l-7-6-10-10-11-7v-4l-1-5 1-2 13-5 7 2 2 1v2h4z" fill="#03A462"/>
<path transform="translate(1079,528)" d="m0 0h1v14l-1 3-3 29-5 37-5 35-2 1v-4h-3v-15l7-49 6-44 4-4z" fill="#0B0F1E"/>
<path transform="translate(183,377)" d="m0 0 2 3 2 4 6 2h26l27 1 17 3-1 16h-1l-2-7-6-2-7-1h-12l-30-2h-14l-10-1-2 2 2-10z" fill="#5C6779"/>
<path transform="translate(112,245)" d="m0 0 10 1 3 2v11l-2 8-2 3h-26l-1-1v-15l3-5 8-3z" fill="#10BE7D"/>
<path transform="translate(294,121)" d="m0 0 9 6 16 15 9 8 4 3v2l-6 1-2-2h-14l-3-1-13-2-2-1-1 15h-1v-13l3-27z" fill="#25EA9F"/>
<path transform="translate(419,287)" d="m0 0 4 2 3 9 2 9 4 6 5 5 5 2 10 2 5 2 19 3 9 1 3 2v2l4 1h-60l-4-9-9-33z" fill="#006042"/>
<path transform="translate(279,246)" d="m0 0 2 4 2 6 1 7 7 3 8 2 10 5 9 5 5 2 2 1 10 1v1h-58v-20z" fill="#007B53"/>
<path transform="translate(1055,411)" d="m0 0 3 3v8l-3 2h-74l-8-1-1-2v-6l41 1h35l6-1z" fill="#838C98"/>
<path transform="translate(534,220)" d="m0 0h1v36l3 2 3 5 8 8 8 3 7 2 4 2h25l5 3v1l-35 1h-32v-15z" fill="#007A52"/>
<path transform="translate(173,411)" d="m0 0 4 2 10 2 16-1 39 1 16 2v7l-2 4-1-4-4 1-15-2-33-1-21 1h-9l-3 2z" fill="#828B98"/>
<path transform="translate(711,325)" d="m0 0h8l6 4v3h6v1h-167v-1l16-1v-3l2-1 13-1h12l8 4v1h32l3-2 13-1h11l4-1 27-1z" fill="#006042"/>
<path transform="translate(717,538)" d="m0 0 3 3 3 6 1 14 1 30v51h-2l-1 10-3 4-3 1h-19v-1l14-1 1-3 8-2-1-12-1-61z" fill="#060917"/>
<path transform="translate(1224,393)" d="m0 0 19 2h21l22 1 5 1h18l1 4-5 3h-14l-27-1h-15l-17 1-6 1-1 3-1-5z" fill="#677180"/>
<path transform="translate(1097,255)" d="m0 0 3 3 4 8 5 2 9 1 5 5 16 5h14l18 1 10 2v1h-83l-1-8z" fill="#007B53"/>
<path transform="translate(1228,415)" d="m0 0h34l32 1 17 1h3l1 1v5h-2v2l-20-2h-36l-21 1-5 1-1 5h-1l-1-6z" fill="#838C98"/>
<path transform="translate(1429,500)" d="m0 0 97 1-3 3-9 2-39 2h-25l-16-2-6 3-2 8h-3v-7l3-9z" fill="#030A1C"/>
<path transform="translate(1020,241)" d="m0 0 7 6v2l-9 2-10 6-11 4-18 4h-1v-7l5-8 6-4 9-3h22z" fill="#01A96D"/>
<path transform="translate(951,247)" d="m0 0h21l3 1 1 8v14h-26l-1-2v-9l1-11z" fill="#8EB6AC"/>
<path transform="translate(1088,121)" d="m0 0 5 3 13 10 18 14 10 7v2l-8 1-3-3-2-5h-9l-4-2-8-1v2h-2v2l-6 1-1 8h-1l-2-19z" fill="#25EA9F"/>
<path transform="translate(75,118)" d="m0 0 4 5 18 15-1 8-3 7-5 2-1 2-5 1-5-5-2-9-4-3 1-14z" fill="#25E99F"/>
<path transform="translate(431,107)" d="m0 0h1l1 9 8 7 13 11 11 8 5 4 2 4h-11v3l-7 1-2 1-2-3h-4l-1-8-1-5-2-2v-2l-5-1-5 1h-2v-15z" fill="#02AD6F"/>
<path transform="translate(869,125)" d="m0 0 2 3 5-2 9 7 14 11 13 11 3 2-1 2-5-1-9 1-12-4-6-5v-2h-3l-6-9-1-5-3 1z" fill="#25EA9F"/>
<path transform="translate(1316,209)" d="m0 0h1l2 16v24h-2v2l-4 1-9 11h-3l-1 2-1-15v-13l11-12 5-3z" fill="#008B5A"/>
<path transform="translate(218,177)" d="m0 0h26v19l-1 3h-26v-10z" fill="#16BD7F"/>
<path transform="translate(585,149)" d="m0 0h17l5 2v15l-1 5-6 1-13-1h-6l-2-5v-9l2-6z" fill="#8AB7AB"/>
<path transform="translate(1307,134)" d="m0 0h1l3 23 1 4v19l-12-7-16-11-22-15-5-6 4 2 13 9 24 6 2-6 5-5h2z" fill="#0FCF86"/>
<path transform="translate(1063,167)" d="m0 0h1l1 11v10l-1 1h-106l4-2 5-2 10-1h14l6 3h8l4-2 23-2h11l8-2v-7l4 1 7 2z" fill="#019960"/>
<path transform="translate(1402,172)" d="m0 0 4 1 9 8 14 11 2 2-1 4-3 2-7 1-3 3-7 1-4-3-4-12-4-8v-6l1-2h3z" fill="#04C781"/>
<path transform="translate(607,525)" d="m0 0h1v7h100v4l9 1v1h-114v-10h1v9l5-1-4-2 1-4z" fill="#080D1C"/>
<path transform="translate(203,421)" d="m0 0 33 1 18 2 2-1v10l-2-3-7 1-22-2h-48l-5 3-4 1 1-7 4-4h14z" fill="#8F9AA3"/>
<path transform="translate(1086,416)" d="m0 0h62l17 1 6-1 2 4-1 3-7 1-29-1h-23l-22 1h-3l-1 6h-1z" fill="#838C98"/>
<path transform="translate(63,404)" d="m0 0 10 3h46l15 2h10l2-1-1 9-2-2-1 1h-11l-12-1h-47l-12-4 1-5z" fill="#76818E"/>
<path transform="translate(473,490)" d="m0 0 5 1 8 4 2 8 11 80v4h-2l-3-17-4-17-5-12-3-9-2-9 1-4 2 4-4-21z" fill="#F8F9F9"/>
<path transform="translate(1529,538)" d="m0 0h1v10l-6 13h-2v9l1 3-4 8-5 15-5 20-7 19-5 11-3 8-1-3 1-3h-2l3-12 13-40 3-7 5-17 9-27 2-5h2z" fill="#050917"/>
<path transform="translate(1310,406)" d="m0 0 3 3 1 8-7 1-13-1-40-1h-25l-2 2v-7l7-2h51l12 1h13z" fill="#76818E"/>
<path transform="translate(790,153)" d="m0 0h7l14 7 5 7v7l-5 2h-24v-10l1-11z" fill="#8FE0BB"/>
<path transform="translate(1443,205)" d="m0 0 6 1 10 4 11 10 2 8-1 1-8 1h-18l-2-2-1-22z" fill="#8DE0BB"/>
<path transform="translate(51,261)" d="m0 0h1l2 7 7 4 14 7 3 2 20-1 14-3 10-2 6-1 7 1-1 7-2 1h-83l-1-3z" fill="#007B53"/>
<path transform="translate(1241,429)" d="m0 0h75v2h2l1 9-2-3-1-2-1 1-66-1-11 1-6 1-1 4v-9l4-2z" fill="#9BA6AD"/>
<path transform="translate(1113,422)" d="m0 0h29l24 1 6-1 2 4v8h-1l-1-6-2 2h-17l-29-1h-30l-5 1-2-3 1-4h12z" fill="#909AA3"/>
<path transform="translate(96,70)" d="m0 0h24l1 1v19l-3 1-21-1-4-2 2-17z" fill="#8EB6AC"/>
<path transform="translate(678,235)" d="m0 0h51l-1 5-1 3-6 5-4 2-7-1-3-2h-11l-1 3-9-9-8-5z" fill="#008C5B"/>
<path transform="translate(572,59)" d="m0 0 4 2 1 1v20l-26-1-1-1v-11l3-7 6 1z" fill="#8EB6AC"/>
<path transform="translate(57,424)" d="m0 0 2 1v2l11 2h68l3-3-1 9-2 4-1-3-7 1-28-2h-42l-5-3-1-5z" fill="#9BA6AE"/>
<path transform="translate(451,235)" d="m0 0h32l1 1-1 15h-3l-6-5v-2h-9l-7 3-1 6 1 10-9 2h-2l1-8z" fill="#848D99"/>
<path transform="translate(1166,390)" d="m0 0h2l1 10-3 3h-9l-7-1h-42l-16 3-7-1-2 3v-14l1 2 16 1h48l4 1h9l4-2z" fill="#677180"/>
<path transform="translate(899,99)" d="m0 0h19l4 2 1 8v9l-1 2h-15l-8-2-2-3v-12z" fill="#8EB6AC"/>
<path transform="translate(1269,154)" d="m0 0h5l20 14 12 8 5 3 2-4 1 5v17h-1l-2-9-7-4-11-9-9-3-3-2-8-4-15-2-2-2 10-5z" fill="#04A26A"/>
<path transform="translate(65,398)" d="m0 0 5 2 12 2h43l13 2h7l2-1v7h-3-10l-16-2h-45l-10-3-2 1 2-6z" fill="#6C7686"/>
<path transform="translate(744,393)" d="m0 0h1l1 7 40 1h136v2l-79 1h-64l-20 1-12-1-3-2v26h-1v-27z" fill="#687281"/>
<path transform="translate(465,243)" d="m0 0h7l2 1v2l4 2 4 3h1v12l-1 1h-26l2-1-2-10 1-6 5-3z" fill="#16BB7E"/>
<path transform="translate(1219,380)" d="m0 0 2 1 9 49 1 11h2l1 7v20l-3 12-2 13-1 5-6-4 1-5 3-6h2l1-10h-1v-20l-2-9-2-20-2-8-1-18-2-8z" fill="#0D1120"/>
<path transform="translate(418,264)" d="m0 0h1v10l10 1 8 3h17l5-3-4-7v-3h21l-2 4-3 3-2 10-11 1h-40l-1-6z" fill="#00915D"/>
<path transform="translate(536,208)" d="m0 0 5 2 6 5v2l4 2 6 5v2l4 2 15 10 3 7v7l-3 4-5-10-6-8-7-4-6-2-9-2-3-4-3-8-1-1z" fill="#00935E"/>
<path transform="translate(131,457)" d="m0 0h2l3 8 5 19 1 7-11-6-9-5-7-3-18-10v-2l5 1 11 4 9 1 5-10z" fill="#F9FAFA"/>
<path transform="translate(1053,392)" d="m0 0 2 2 1 9-2-2-4 2h-48l-23-2-7-2-1-1v-5l7 2 28 1h44l2-1z" fill="#677180"/>
<path transform="translate(1057,425)" d="m0 0 3 4v8h-12l-6-1h-68l-1-7 11 1h72z" fill="#9CA7AE"/>
<path transform="translate(1146,650)" d="m0 0h2l-2 4-7 3h-64l-7-3-2-1v-2z" fill="#01020F"/>
<path transform="translate(532,283)" d="m0 0h6l2 6v15l3 17 2 2h9l15 4v2h4v2l-14 1-1 1-18-1-2-7-6-34z" fill="#006042"/>
<path transform="translate(842,196)" d="m0 0h1v76l-1 2-5-2-7-7-18-1 4-2h6v-6l9-3 2-1 2-7 6-4z" fill="#03A168"/>
<path transform="translate(164,458)" d="m0 0 5 1 9 2 2 4v8l-1 2-1 17v16l1 6h-2l-13-47z" fill="#FAFBFB"/>
<path transform="translate(565,606)" d="m0 0h59l4 2h-6l-1 4-5 1h-70l4-2h3v-4z" fill="#02091C"/>
<path transform="translate(871,235)" d="m0 0h1l1 19 5 12 4 5 5 4v2l16 2 4-1 12 2v1l24 1v1h-70l-2-1z" fill="#007952"/>
<path transform="translate(880,649)" d="m0 0h2v6l-5 2-34 1-4-1-22-2-17-3v-1z" fill="#030513"/>
<path transform="translate(285,205)" d="m0 0 5 4v2l5 2 6 7 8 7 9 8 11 9 2 3-8-2-6-4-4-3-12-5-12-8-2-3-2-6-1-1v-9z" fill="#00935E"/>
<path transform="translate(497,558)" d="m0 0h1l1 7h2l1-4 1 5v18h2l6 47v9l-2-1-2-4h-2l-9-67z" fill="#0A1225"/>
<path transform="translate(1223,390)" d="m0 0 8 1 14-1h35l20 2 8 1 2 3-1 3v-2l-6 1h-12l-5-1-25-1h-19l-16-2-2-1v5h-1z" fill="#5D6D7D"/>
<path transform="translate(871,203)" d="m0 0 8 6 6 8 11 10 15 10 8 7 6 5-2 1-16-3-8-6-9-10-5-6-5-5-2-3v-3h-2l-2-5h-3z" fill="#00945E"/>
<path transform="translate(180,392)" d="m0 0 10 1h19l26 2h11l10 2 5 3v11h-1v-7l-5-1-9-2-59-2-7-3z" fill="#677180"/>
<path transform="translate(512,131)" d="m0 0h1l-1 26-2 22-2 3-10-9-11-9-3-4 5-1 6 2 5-1 4-8 5-3h2v-13z" fill="#0DCB83"/>
<path transform="translate(463,149)" d="m0 0 10 1 11 9 4 5 11 9 9 8 2-2v4h-2l-1 2-8-5-4-5-11-8-17-2-6-5v-3l-2-4h2v-3z" fill="#04A46B"/>
<path transform="translate(606,147)" d="m0 0h6l6 9 1 7 2-2v22l-4 1-11-8-1-4 1-6v-15l-1-3z" fill="#04A561"/>
<path transform="translate(1199,651)" d="m0 0h76l-2 1 1 4-5 1h-50l-12-1-3-2v-1l-5-1z" fill="#01020F"/>
<path transform="translate(1085,426)" d="m0 0 2 4 2 18v22l-4 29-1 16h-2v2l-3 1-2 2-1-1v-8l1-1 1-7 4-4 1-14-1-1v-9l1-10v-22l1-2z" fill="#02091C"/>
<path transform="translate(1010,327)" d="m0 0 13 1 6-1h21l6 2 1 4h-86v-1l9-1 3-2 7-1h14z" fill="#006042"/>
<path transform="translate(425,241)" d="m0 0 5 1 5 4v2h2l5 5 6 2 1-12h1v9l-3 13 2 1-5 3-7-2-3-4-7-2-3-12v-6z" fill="#04A26A"/>
<path transform="translate(699,500)" d="m0 0h11v1l-8 2-4 2-21 2-56 1-8 1-1-1v-5l37-1h27l19-1z" fill="#02091C"/>
<path transform="translate(1179,234)" d="m0 0h1l1 8v27l-15-3v4l-4 1-3-3 3-2-2-5-10-9h3l8 4h6l5-8 4-3z" fill="#03A169"/>
<path transform="translate(212,648)" d="m0 0 4 2 76 1-2 1v2l-4 2-29 1-37-1-7-4z" fill="#01020F"/>
<path transform="translate(1345,55)" d="m0 0h88v1l-72 1 12 8-3 3h-7l-5-2h-13l-6-2h-6v-3l4-2 2 1v-2l6-1z" fill="#10D187"/>
<path transform="translate(524,563)" d="m0 0 4 5 6 3h51l-11-1v-1h12l10 3v2l18 1v1h-89l-1-1z" fill="#FCFCFC"/>
<path transform="translate(1093,202)" d="m0 0h1v5l4 1 3 5 3 1v2l9 3 5 5 7 6v2l3 1v2l-8 1-17-8-4-7-5-3-1-4z" fill="#00935E"/>
<path transform="translate(1139,165)" d="m0 0h7l6 2 3 10-1 4-3 2h-12l-6-1-1-3v-10l3-3z" fill="#C9DDD9"/>
<path transform="translate(107,650)" d="m0 0 77 1-3 1-2 4-51 1-15-2-6-4z" fill="#01020F"/>
<path transform="translate(1165,385)" d="m0 0 2 3-1 7-5 3h-9l-4-1h-49l-13-1-3-3v-2l16 1h62l3-1z" fill="#5D6D7D"/>
<path transform="translate(68,388)" d="m0 0 8 3h10l3-1h22l23 1 13 1h3v7l-2-1h-11l-14-2-20-1h-26l-7-3z" fill="#5D6D7D"/>
<path transform="translate(1282,267)" d="m0 0 4 2 6 8 1 6h-54v-4l9 1h16l4-2 5-5h2v-2l6-3z" fill="#00925D"/>
<path transform="translate(958,641)" d="m0 0h1l1 9 76 1v1h-5l-2 4h-55l-7-2-9-3-1-1v-8z" fill="#01020F"/>
<path transform="translate(966,535)" d="m0 0h1v26l-3 37h-1l-1-9-2 1-2-1-1 3v-19l5-33 3-2z" fill="#080C1A"/>
<path transform="translate(1405,254)" d="m0 0 5 3 5 11 4 4 10 3 3 5v2h17v1h-38l-2-1-4-25z" fill="#008356"/>
<path transform="translate(971,390)" d="m0 0 2 1h38l28 2h11l3-1-1 4-2 1h-51l-21-1-6-2z" fill="#5E6E7E"/>
<path transform="translate(508,647)" d="m0 0h1v7l-5 2-6 1-110 1-48-1-12-1-7-3v-1l14 1 10 1 32 1h118l4-1v-2l-33-1v-1l41-1z" fill="#02091C"/>
<path transform="translate(968,392)" d="m0 0 2 4 3 45v38l-3 37-2 11h-1l-1-12-1-4 1-11 3-9 2-28-1-17-2-11z" fill="#020A1D"/>
<path transform="translate(950,98)" d="m0 0 105 1 3 2-9 2h-55l-23-1h-19z" fill="#010615"/>
<path transform="translate(1052,94)" d="m0 0 5 1 2 4h-106l-1-4h95z" fill="#1BD38E"/>
<path transform="translate(873,479)" d="m0 0h8l3 2v6l-8 12-2 4-2-7-5-1-6 5-1-3v-10l8-5z" fill="#D6DCDF"/>
<path transform="translate(1169,316)" d="m0 0h4l-1 7-3 9-1 1h-57l4-4 7-1h38l4-1 3-9z" fill="#006042"/>
<path transform="translate(626,71)" d="m0 0h17l2 3v9l-2 3-4 1h-13l-3-2v-10z" fill="#CEDCDB"/>
<path transform="translate(335,165)" d="m0 0h11l4 3v11l-2 3-18 1v-13z" fill="#C6DDD8"/>
<path transform="translate(1480,64)" d="m0 0 8 1 9 7 12 8v-6l4-2 2 3 2 17-6-2-17-12-14-10z" fill="#1ABD6C"/>
<path transform="translate(178,316)" d="m0 0 7 6 4 3 12 1h11l15 3 1 2 7 1v1h-50l-5-10z" fill="#006042"/>
<path transform="translate(369,54)" d="m0 0h13l-1 20-2 13-2 2-1-1-1-8-5-10-2-2-1-7 2-6z" fill="#0ED086"/>
<path transform="translate(1161,559)" d="m0 0h27l-1 9-5 25-2 1-2-11v-8l1-1v-6l-6-2-1-2h-6l-5 2z" fill="#0D1324"/>
<path transform="translate(1236,126)" d="m0 0 4 2 17 12 6 8-5-2-14-2-11-4-4-4-1-4 5-3h4z" fill="#01B275"/>
<path transform="translate(624,98)" d="m0 0h103l4 2-104 1-1 2-1 38-1 10h-1v-43z" fill="#031024"/>
<path transform="translate(1053,266)" d="m0 0 5 5 8 10v1l-5 1h-99l-9-9v-2l6 1 4 3 15 5h70l6-2z" fill="#00935E"/>
<path transform="translate(1147,56)" d="m0 0h17l2 11v31h-1l-3-18-4-2-2-2-1-8 2-4-4-2-6-5z" fill="#10CC85"/>
<path transform="translate(91,172)" d="m0 0h15l-1 13-2 2h-19l1-7 3-7z" fill="#CADCD9"/>
<path transform="translate(1417,139)" d="m0 0h14l1 1v14l-3 2-13-1-4-9v-6z" fill="#8FBAAE"/>
<path transform="translate(241,74)" d="m0 0 5 1 10 9 4 8-1 1-14-1h-8l-2-2 1-5z" fill="#D0DCDC"/>
<path transform="translate(140,236)" d="m0 0h1l-1 13-4 23-2 1-1-3-5-1-7 1 2-5 2-8 2-4 8-7 4-1z" fill="#039C67"/>
<path transform="translate(1221,503)" d="m0 0 5 2-3 22-3 11h-27l3-21 2-2 1 1v9l-1 9 3 1 7-2 8-1 3-6 1-15z" fill="#0B101F"/>
<path transform="translate(590,252)" d="m0 0 5 1 1 7-1 5-1 4-7 1h-7l-4-2-1-2v-8l3-5h6l-1 8-1 3 3-1 1-8z" fill="#78838F"/>
<path transform="translate(184,626)" d="m0 0 4 4 3 9-1 14-2 3-8 1h-50v-1l49-1 2-3-71-1v-1h77l-2-10-3-9v-4z" fill="#0D162A"/>
<path transform="translate(367,214)" d="m0 0h1l-2 32-3 8-7 6-3 5-6 5h-5l1-5h2l-2-7-6-5 2-1 5 3h6l8-7 5-2 2-17 1-13z" fill="#0D9F6C"/>
<path transform="translate(61,197)" d="m0 0h1v8l6 1 6 8v2l5 2-1 3-3-1-1 4-4 3h-5l-4-6-1-3v-14z" fill="#00915D"/>
<path transform="translate(204,390)" d="m0 0 18 1h22l11 1 7 3v11h-1l-2-7-6-2-7-1h-12l-30-2h-14l-4-1v-2z" fill="#5D6D7D"/>
<path transform="translate(541,96)" d="m0 0 4 2 4 22 5 2 4 3 3 1 2 7h2v3l-3 1-14-11-6-7-2 2z" fill="#12AE68"/>
<path transform="translate(431,107)" d="m0 0h1l1 9 8 7 12 10-2 2-8 1-6-2-5 1h-2v-15z" fill="#00AD72"/>
<path transform="translate(392,583)" d="m0 0 3 3 2 12 4 6 5 3 7-1v3l6 2v2h-25l-3-15v-10z" fill="#0B0F1E"/>
<path transform="translate(80,224)" d="m0 0 8 6 7 8 2 1 1 3v7l-3 5v9l-1 6h-1l-2-17-4-6-1-3-1-11-8-3 1-4z" fill="#00945F"/>
<path transform="translate(1481,195)" d="m0 0h1l4 29v6l-2-3-4-1-2-1v-2l-3-1-1-4h-2l1-6 4-9 1-5 2 1z" fill="#00905C"/>
<path transform="translate(1440,265)" d="m0 0h22l2 1-1 5h5v5l-5 2-8-4-1-1-14-1-6-1 3-5z" fill="#04A26A"/>
<path transform="translate(397,185)" d="m0 0h1v10l5 1 5 4 2 4 6 3v2l8 1v5l-1-4h-27v-12z" fill="#008959"/>
<path transform="translate(423,458)" d="m0 0 9 3 15 10 11 7 1 3-6-1-16-8-5-2-7-1-4-5z" fill="#F7F8F8"/>
<path transform="translate(1523,539)" d="m0 0h5l-13 39-2 1 2-9 2-12-1-7-5-8-11-2v-1z" fill="#F7F8F9"/>
<path transform="translate(665,532)" d="m0 0h43v4l9 1v1h-40l-15-2 4-2z" fill="#02091B"/>
<path transform="translate(1244,244)" d="m0 0 5 1 9 6 3 6-1 7-4 2-5 1-3-4-2-11-3-4z" fill="#04A26A"/>
<path transform="translate(628,584)" d="m0 0 5 1 1 4 1 13 2 6v5h-21v-1l5-1 1-3 5-1z" fill="#050917"/>
<path transform="translate(1014,143)" d="m0 0 2 1 5 6 13 9 9 7-3 2-8-2-10-7-6-2-4-6v-6l-2-1z" fill="#01A96D"/>
<path transform="translate(962,586)" d="m0 0h1v25l-2 14-3 3-2-8v-19l2-12h3z" fill="#060816"/>
<path transform="translate(149,200)" d="m0 0h10l2 3v8l-4 11-4-1-5-12v-8z" fill="#051C31"/>
<path transform="translate(467,235)" d="m0 0h16l1 1-1 15h-3l-6-5v-2h-9l-6 1 3-4h2l1-4z" fill="#848E99"/>
<path transform="translate(1410,258)" d="m0 0 4 1 6 3 2 5 6 4 7 1v2h2v2l5 2 2 4h-12l-3-6-10-3-6-6z" fill="#008E5B"/>
<path transform="translate(1146,650)" d="m0 0h2l-2 4-7 3h-64l-7-3-2-2h8l9 2h45l17-3z" fill="#02081B"/>
<path transform="translate(137,327)" d="m0 0 5 1-1 4 6-2 8-2h2l1 4-2 1h-55v-1h8v-2l8-2z" fill="#006042"/>
<path transform="translate(716,404)" d="m0 0h1l1 43 2 5-1 37h-2l-1 3-1-29v-34z" fill="#02091C"/>
<path transform="translate(1243,55)" d="m0 0h55l-1 4-2-1h-32l2 1 1 6-3 3-8-6-6-5-6-1z" fill="#0AC27D"/>
<path transform="translate(1321,148)" d="m0 0 4 1 4 5 1 7-1 5-4 3-5-1-3-2v-10z" fill="#051C31"/>
<path transform="translate(1489,248)" d="m0 0h1l1 7v11h-7l-6 1v2l-6 2-3-1 1-5 8-8 5-1 4 1 1-1z" fill="#039E68"/>
<path transform="translate(977,184)" d="m0 0h14l6 3 53 1v1h-92l4-2 5-2z" fill="#00945D"/>
<path transform="translate(1134,240)" d="m0 0 4 2 6 4-2 1h-5l1 2v6l-2 4h-10l-2-5 3-9 6-1z" fill="#019760"/>
<path transform="translate(1108,83)" d="m0 0 5 2v3l2 1v3l2 1-2 2v9l3 3v2h-10l-1-5v-20z" fill="#90E0BB"/>
<path transform="translate(363,241)" d="m0 0h1v5l-9 5-5 5h-6l-9-5-7-7 2-1 9 4 8 1 9-4z" fill="#01A86C"/>
<path transform="translate(868,104)" d="m0 0 4 2 5 15 4 7-1 2-4-3-6 2-1 26h-1z" fill="#0EA161"/>
<path transform="translate(1050,598)" d="m0 0h1v7l-3 13v10l-2 10-2 3h-2l-1 3v-15l3-18 1-5 2 2z" fill="#0A1022"/>
<path transform="translate(85,53)" d="m0 0h35l5 5 2 3-5 2h-6l-9-2 3-2-1-3h-20l-2 1-2 3z" fill="#11C07E"/>
<path transform="translate(79,600)" d="m0 0h2l5 14 2 6v6l-9-3-4-12 1-4z" fill="#040B1E"/>
<path transform="translate(515,54)" d="m0 0h2l-1 35-1 15h-1l-1-8-4-2-5-6v-2l6-2 3-7z" fill="#0FC580"/>
<path transform="translate(691,68)" d="m0 0 5 1 4 4 1 7-4 2h-8l-5-3v-6l3-1v-2z" fill="#D2DCDD"/>
<path transform="translate(580,154)" d="m0 0 8 6 6 4 5 5 1 2h-19l-2-5v-9z" fill="#CEDCDB"/>
<path transform="translate(602,499)" d="m0 0 9 1v2l-2 1-1 22-1 6-1 3 5 2v1h-7l-1-9z" fill="#010413"/>
<path transform="translate(1040,648)" d="m0 0h1l-1 7-7 2h-51v-1l47-1 2-3-71-1v-1l79-1z" fill="#0E1629"/>
<path transform="translate(1179,234)" d="m0 0h1l1 8v27l-15-3v4l-4 1-3-3 3-2 1-4 6-1 2-2h6l2-1z" fill="#119A67"/>
<path transform="translate(181,154)" d="m0 0h3l-1 8h-4v-2h-2l-2 5-3 2 3 1v1h-8l-1-2v-11l1-1z" fill="#8EB6AC"/>
<path transform="translate(726,93)" d="m0 0 5 2v3h-92v-1l68-2 18-1z" fill="#24E99E"/>
<path transform="translate(169,577)" d="m0 0h26l2 9-1 4-2 1-4-8-5-1h-11l-1 4-2-1v-2l-3-1-1-4z" fill="#080C1B"/>
<path transform="translate(759,205)" d="m0 0 5 2 7 7 7 4 5 5 2 6-4-2-14-8-5-2-3-1z" fill="#019A60"/>
<path transform="translate(790,153)" d="m0 0h7l12 6v3l-3-1-15 1-1 5 2 5 2 1v2l-7 1v-10l1-11z" fill="#D3DCDD"/>
<path transform="translate(841,241)" d="m0 0h1v10l-6 9-7 1-7-2 1-4 10-3 2-7z" fill="#01A96D"/>
<path transform="translate(816,168)" d="m0 0 5 2 8 6 7 7v2l-17-3-6-4 2-4z" fill="#10D287"/>
<path transform="translate(560,56)" d="m0 0h13l4 4-1 2-4-2-13 4-6-1-2 6-1 11h-1l-1-6v-13l1-3 7-1z" fill="#0FC07E"/>
<path transform="translate(1202,183)" d="m0 0h1l3 9 3 10 5 4 6 3 1 2 12 1v1h-20l-7-1-1-1-1-9-1-2z" fill="#008255"/>
<path transform="translate(1529,538)" d="m0 0h1v10l-6 13h-2v7l-5 14-2 4-3 1 2-9 11-33 2-5h2z" fill="#0D0F1D"/>
<path transform="translate(916,241)" d="m0 0 4 2 6 4 14 7 8 9 2 7-6-3-10-9-11-10-7-6z" fill="#01A86C"/>
<path transform="translate(887,585)" d="m0 0h1l-1 26-1 25-3 5-2 4 2-31 1-26z" fill="#050917"/>
<path transform="translate(503,268)" d="m0 0h1v15h-28v-1h6v-2l5-5 3-1h7l5 3z" fill="#037954"/>
<path transform="translate(1015,235)" d="m0 0h52l1 3 1 11v10h-1l-1-17h-10l-10-4-1-1-31-1z" fill="#007D54"/>
<path transform="translate(202,610)" d="m0 0h2l9 34 1 5-6-3-4-14-3-12v-8z" fill="#141827"/>
<path transform="translate(519,564)" d="m0 0 4 1 2 10 1 4 13 1 42 1v1h-51l-5-1v2l-4-1-2-4-1-13z" fill="#03091C"/>
<path transform="translate(1512,590)" d="m0 0 1 4-7 21-4 13-5 12-3 1 3-11 13-39z" fill="#111523"/>
<path transform="translate(1129,83)" d="m0 0h11l1 26-1 1h-7v-2l3-2 1-6-1-5-4-2-2-6 1-1-2-1z" fill="#91DDBB"/>
<path transform="translate(799,650)" d="m0 0h46v1l-40 1 21 3 13 1 4 2h-21l-17-1-5-2z" fill="#0D1527"/>
<path transform="translate(229,153)" d="m0 0 4 2 5 4 10 1 2 3v7l5 3 2-6 3-2 1 1v7l-2 3-2-3-1 2-5-1-9-7-13-13z" fill="#0DCF85"/>
<path transform="translate(1024,69)" d="m0 0h19l2 7-3 4-8-1-10-8z" fill="#11D087"/>
<path transform="translate(1058,502)" d="m0 0h3v9l-2 8-1 15-3 10-1 7-2 1 1-16 4-30z" fill="#050918"/>
<path transform="translate(1219,380)" d="m0 0 2 1 8 43v3h-2l-1 5h-1l-3-16-1-18-2-8z" fill="#02091D"/>
<path transform="translate(132,236)" d="m0 0 7 3 1 2-1 4-5 3-5 5h-2l-2 4v-9l2-9z" fill="#00A96D"/>
<path transform="translate(1343,440)" d="m0 0h2l1 6 2 1 2 7v10l-10 41-3 1 1-6 6-25 2-7v-16l-2-1z" fill="#020A1E"/>
<path transform="translate(364,248)" d="m0 0h1v11l-2 10-3 2-9-2-2-2 4-2 2-5 8-7z" fill="#00945D"/>
<path transform="translate(1181,255)" d="m0 0h1v20l-1 5-12-6-5-3 2-1v-4h7l8 3z" fill="#008858"/>
<path transform="translate(218,177)" d="m0 0h26l-1 5-9-3-7 1-5 3-1 6 2 4v3l3 1v1h-9z" fill="#8CB1A9"/>
<path transform="translate(96,70)" d="m0 0 4 2 7 3-1 4-4 4-1 5-1 1h-6l-1-2 2-16z" fill="#90DFBB"/>
<path transform="translate(286,651)" d="m0 0h6l-2 1v2l-4 2-29 1-37-1-5-4h11l6 2h34l16-1z" fill="#050917"/>
<path transform="translate(620,161)" d="m0 0h1v22l-2-4-2 3-5-4v-2l-4-1-1-5h5l2-5 3-3v2h2z" fill="#069C68"/>
<path transform="translate(1139,246)" d="m0 0 6 1 15 13-3 2-10-4-2-2h-7v2l-2-1 1-2v-8z" fill="#008D5B"/>
<path transform="translate(1457,119)" d="m0 0 10 2 2 5 2-3v11l-10-4-10-8 3-2z" fill="#25E99E"/>
<path transform="translate(532,71)" d="m0 0h2l-1 9-4 3-1 4-1 19-1 2-3-1-2-11 2-10h3l1-7 3-1z" fill="#051C31"/>
<path transform="translate(1176,457)" d="m0 0h1v11l-2 6-2-1v-2l-4-2-11-8v-2l9 1z" fill="#F6F7F7"/>
<path transform="translate(744,393)" d="m0 0h1l1 7 32 1 2 2-1 1-20 1-12-1-3-2v26h-1v-27z" fill="#66707F"/>
<path transform="translate(518,535)" d="m0 0 2 3 2 9v19l-4-1-1-2-1-11-3-4 2-5z" fill="#0C1121"/>
<path transform="translate(1323,267)" d="m0 0h1v16h-19l2-1 2-6 3-2h7l4-1z" fill="#007952"/>
<path transform="translate(717,270)" d="m0 0 5 2 6 5v6h-69v-1h61l-3-9z" fill="#008C5A"/>
<path transform="translate(189,120)" d="m0 0h3l5 5 5 6-7 1-11 4v-7l2-6 3-1z" fill="#01B275"/>
<path transform="translate(163,271)" d="m0 0h1v5l10 3 3 2 59 1v1l-69 1-4-1z" fill="#008D5B"/>
<path transform="translate(451,235)" d="m0 0h16l2 2-5 2v2l-9 6-5 1v-8z" fill="#8EB6AC"/>
<path transform="translate(184,154)" d="m0 0 2 1 1 14-4 2h-14l-2-2 4-1 1-3 3-1 2-4h2l1 2h2z" fill="#11BC78"/>
<path transform="translate(497,558)" d="m0 0h1l1 7h2l1-4 1 5v19h-2v6h-2l-3-23z" fill="#121726"/>
<path transform="translate(384,540)" d="m0 0h2l5 25-1 7-3 1-1-1-3-21v-8z" fill="#090E1E"/>
<path transform="translate(193,459)" d="m0 0 6 1 21 13 8 5v2l-6-2-10-4-13-8-5-3z" fill="#F3F4F5"/>
<path transform="translate(180,379)" d="m0 0h1l-1 10-8 30-3 8h-1v-9l5-18 2-4 1-11 3-5z" fill="#020A1D"/>
<path transform="translate(185,64)" d="m0 0 5 2 1 1v7l-2 2h-9l-3-4v-5l3-2z" fill="#D0DCDC"/>
<path transform="translate(885,217)" d="m0 0 8 4 13 2 2 8 5 7-5-2-13-9-10-9z" fill="#00AB70"/>
<path transform="translate(87,174)" d="m0 0h4v3h2l1 8 1-3 4-6 2 2v6h-2v2l4 1h-19l1-7z" fill="#76E9B9"/>
<path transform="translate(480,81)" d="m0 0 6 2 2 3v5l-2 2h-11l-1-2v-6l3-3z" fill="#D8E1E1"/>
<path transform="translate(842,145)" d="m0 0h1v45l-7-6-2-5 4-5 2-5 1-1z" fill="#0C8B63"/>
<path transform="translate(774,134)" d="m0 0 5 2 7 6-2 5-5 1-6-3-4-4 2-5z" fill="#26EBA0"/>
<path transform="translate(321,652)" d="m0 0 14 1 10 1 32 1 11 1v1h-48l-12-1-7-3z" fill="#02091A"/>
<path transform="translate(1304,519)" d="m0 0h1l1 13-9 39-2 1 1-14 6-27z" fill="#F5F6F7"/>
<path transform="translate(374,499)" d="m0 0h27v11l-3-4-4-4h-13l-2 6-1 8-2-3z" fill="#020616"/>
<path transform="translate(576,239)" d="m0 0 4 2 7 6 1 4h2l-2 4h-2l1 4h-2l1 5-6 1 3-9-1-1-1-2-3-1v-7z" fill="#019C63"/>
<path transform="translate(1263,234)" d="m0 0h3v2h31l1 1v6l-8-1-11-3-8 1-7 1z" fill="#88A1A2"/>
<path transform="translate(1150,167)" d="m0 0h2l3 10-1 4-3 2h-9l1-4-1-5 1-1h5l1-3h2z" fill="#86E2BA"/>
<path transform="translate(1339,95)" d="m0 0h18l7 1v2h20v1h-53l3-1v-2z" fill="#0B965D"/>
<path transform="translate(1093,202)" d="m0 0h1v5l4 1 3 5 3 1v2l9 3 5 5 4 5-4-2-13-8-4-1h-7l-1-4z" fill="#019960"/>
<path transform="translate(308,594)" d="m0 0 2 4 6 29-1 3-4-3-4-19 1-6-2-5z" fill="#171D2D"/>
<path transform="translate(566,127)" d="m0 0 4 2 4 9v8l-2 2-9-10v-2h2v-3l-2-1h3z" fill="#13B369"/>
<path transform="translate(943,471)" d="m0 0h1v28h-32v-1l29-1-6-4 2-1 1-4 3-5z" fill="#D1D7DB"/>
<path transform="translate(369,54)" d="m0 0h13l-1 13-7-2-5-6z" fill="#28EBA1"/>
<path transform="translate(683,55)" d="m0 0h7v3l13 13 6 4 1 5-10-6-9-8-8-10z" fill="#0ED186"/>
<path transform="translate(1420,259)" d="m0 0h7l6 3 2 2-1 5-1 1h-8l-4-6v-3l-3-1z" fill="#93A1A7"/>
<path transform="translate(1406,261)" d="m0 0h3l1 2v9l4 5 10 4 6 1v1h-19l-2-1-3-17z" fill="#007B53"/>
<path transform="translate(81,217)" d="m0 0 12 1 1 4-3 6h-7l-4-4-1-5z" fill="#98CDBA"/>
<path transform="translate(159,115)" d="m0 0h1l2 17 1 9h-8v-8l3-17z" fill="#02091C"/>
<path transform="translate(1264,83)" d="m0 0h7l4 3v5l-2 2h-9l-3-4 1-5z" fill="#F3F6F5"/>
<path transform="translate(209,53)" d="m0 0h12l12 1 1 5h2l1 5-4 1-5-5-6 1-1-6-7 1-5-2z" fill="#0FD084"/>
<path transform="translate(1147,56)" d="m0 0h17l-1 4 1 1v6l-6-1-11-9z" fill="#3EF9B3"/>
<path transform="translate(607,606)" d="m0 0h17l4 2h-6l-1 4-10 1-4-2 1-2-5 2-6-2v-1h10z" fill="#050917"/>
<path transform="translate(180,532)" d="m0 0h2l2 3v3h-26l-1-3h2v-2h12l7 1h2z" fill="#1B202F"/>
<path transform="translate(923,500)" d="m0 0h14v1l-20 3-10 1-9 4-3 3v-8l5-2z" fill="#02091C"/>
<path transform="translate(228,247)" d="m0 0h3l-2 6-6 5-6-1-2-4v-3l3-2z" fill="#7D8A94"/>
<path transform="translate(110,247)" d="m0 0h11l3 3-2 6-1 1h-5l-7-5-1-3z" fill="#8EB6AC"/>
<path transform="translate(970,490)" d="m0 0h1v16l-3 21h-1l-1-12-1-4 1-11z" fill="#02081A"/>
<path transform="translate(46,462)" d="m0 0 2 3 13 41-1 7h-2l-1-9-9-28-3-11z" fill="#020819"/>
<path transform="translate(534,652)" d="m0 0 7 1 8 2 77 1v1h-84l-7-3z" fill="#03091A"/>
<path transform="translate(1083,498)" d="m0 0h1v17h-2v2l-3 1-2 2-1-1v-8l1-1 1-7z" fill="#0B1020"/>
<path transform="translate(1048,99)" d="m0 0h7l3 2-9 2h-55v-2l54-1z" fill="#02091B"/>
<path transform="translate(161,98)" d="m0 0h26l-2 11-2-3-1-2-4-2-11-1-4 2-3 4v-7z" fill="#030D21"/>
<path transform="translate(634,602)" d="m0 0 2 1 1 10h-21v-1l5-1 1-3 8-1v-2z" fill="#01020F"/>
<path transform="translate(759,216)" d="m0 0h5l5 3 12 7 7 5-3 1h-6l-8-7-12-8z" fill="#00935E"/>
<path transform="translate(1449,206)" d="m0 0h13l8 2v12l-7-6-6-4-8-3z" fill="#14BD7E"/>
<path transform="translate(527,613)" d="m0 0h2l2 10v22l-2-3-2-6-1-7v-15z" fill="#090F20"/>
<path transform="translate(242,264)" d="m0 0 5 1v2h2v8l-2 8h-11v-1h8l-1-6-3-7z" fill="#008156"/>
<path transform="translate(928,170)" d="m0 0 5 2 7 6v3h-14v-9z" fill="#C6DCD7"/>
<path transform="translate(880,649)" d="m0 0h2v6l-5 2-34 1-4-2 21-1 20-4z" fill="#03091A"/>
<path transform="translate(1465,55)" d="m0 0h50l-8 4h-17l-6-2-19-1z" fill="#11AC67"/>
<path transform="translate(1470,210)" d="m0 0h1v8h3l2 4 2 1v2l7 1v4h2l2 15-2-2-2-11-10-4-3-3v-2h-2z" fill="#019660"/>
<path transform="translate(953,272)" d="m0 0 6 1 4 3 15 5v2h-16l-9-9z" fill="#00915D"/>
<path transform="translate(899,99)" d="m0 0h19l3 3-7-1h-9l-3 1v12l1 4-5-1-1-2v-12z" fill="#90DFBB"/>
<path transform="translate(253,231)" d="m0 0h1l-1 16-2 15-2-3-2-4v-11l4-6z" fill="#007C54"/>
<path transform="translate(153,140)" d="m0 0 9 2 10 1-2 1-2 5-3 2h-5l-1-4h-2v-2h-2v-2h-2z" fill="#01A76C"/>
<path transform="translate(463,265)" d="m0 0h13l-2 4-3 3-2 10h-4v-10z" fill="#008C5A"/>
<path transform="translate(965,548)" d="m0 0h2v13l-2 24-2-2v-26l1-8z" fill="#1A1F2E"/>
<path transform="translate(499,326)" d="m0 0h8l6 4-1 2h-20l-1-2z" fill="#006042"/>
<path transform="translate(568,206)" d="m0 0 6 1 3 2-1 5-7 2-5-1-1-3z" fill="#C9DBD8"/>
<path transform="translate(1223,113)" d="m0 0 1 2h2l6 8-2 4-3 4-1 10h-1l-2-20z" fill="#05A664"/>
<path transform="translate(1042,260)" d="m0 0 7 1 3 5v4h-8l-6-7 1-2z" fill="#8A969F"/>
<path transform="translate(551,67)" d="m0 0 4 2 6 9v2l-10 1-1-1v-11z" fill="#90DFBB"/>
<path transform="translate(1494,645)" d="m0 0 1 4-3 7-3 1h-20v-1l19-1v-3l-34-1v-1l36-1 2-2 2 1z" fill="#22293A"/>
<path transform="translate(97,636)" d="m0 0h3l2 1 2 9h3l1 5 5 3 5 1v1h-9l-6-4-6-14z" fill="#070A19"/>
<path transform="translate(1228,468)" d="m0 0 3 1 1 6-3 18-1 5-6-4 1-5 3-6h2l1-10h-1z" fill="#080E20"/>
<path transform="translate(1087,465)" d="m0 0h1v13l-3 21-2-1v-13l-1-1v-9l3-2z" fill="#04091A"/>
<path transform="translate(1309,652)" d="m0 0 9 1 7 2 51 1v1h-60l-6-2z" fill="#02091B"/>
<path transform="translate(763,206)" d="m0 0 4 2 10 7 11 4 9 6 4 2-2 1-7-3-8-4-8-3-8-6z" fill="#1CBC6A"/>
<path transform="translate(1028,156)" d="m0 0 5 2 10 8-3 2-8-2-9-6 2-2 3 1z" fill="#03A26A"/>
<path transform="translate(578,253)" d="m0 0h6l-1 8-1 2-6-1 1 3 7 1v4l-6-1-3-3v-8z" fill="#94ABAB"/>
<path transform="translate(430,178)" d="m0 0h7l2 1-1 6-2 2-10-1-1-4h2l1-3 2 1z" fill="#A0B1B4"/>
<path transform="translate(94,71)" d="m0 0h1l-1 17 3 1 21 1v1l-12 1-10 2-5-2 1-14z" fill="#0FC580"/>
<path transform="translate(508,647)" d="m0 0h1v7l-5 2-9 1v-2l4-1v-2l-33-1v-1l41-1z" fill="#030C22"/>
<path transform="translate(1522,570)" d="m0 0 1 3-4 8-5 15-5 20h-1l1-9 2-10 1-6-1-2 2-3h2l3-10z" fill="#02091A"/>
<path transform="translate(1048,587)" d="m0 0h2l1 11-3 10-4 3 1-15 1-7z" fill="#171C2A"/>
<path transform="translate(417,600)" d="m0 0h2l2 10v4h-26v-1h24v-2l-6-1-1-2 2-7z" fill="#2B3140"/>
<path transform="translate(1089,322)" d="m0 0 14 7v3h-16z" fill="#006042"/>
<path transform="translate(410,560)" d="m0 0 2 3 4 23v7h-2l-3-11-2-11v-7z" fill="#040716"/>
<path transform="translate(1186,559)" d="m0 0h2v5l-3 3-8-3-4-1h-9l-2-1v-2z" fill="#040513"/>
<path transform="translate(1326,54)" d="m0 0h32v1l-13 1h-15v2h2l-1 4-2 1-1 5-2-4z" fill="#26A67D"/>
<path transform="translate(576,48)" d="m0 0h8l6 2 12 1v1l-5 1h-21l-6-2 4-2z" fill="#02091C"/>
<path transform="translate(1300,77)" d="m0 0h1l2 7v11l-5 1-7-7 4-2 3 1z" fill="#0FC982"/>
<path transform="translate(1285,635)" d="m0 0 2 1-3 13h-2l-1 4-4 4-8 1v-2h5l-1-4 5-2 1-5h4l1-7z" fill="#090C1B"/>
<path transform="translate(173,205)" d="m0 0 2 4 4 4-1 2h-4l-1 15-4 2 1-12 2-14z" fill="#049B68"/>
<path transform="translate(169,577)" d="m0 0h26l1 10-4-5-13-2-10-1z" fill="#1C202F"/>
<path transform="translate(492,533)" d="m0 0 6 1 1 12h-2v5l-3 4-2-16z" fill="#081124"/>
<path transform="translate(50,284)" d="m0 0h5l6 13v9l-3-4-8-16z" fill="#006042"/>
<path transform="translate(343,82)" d="m0 0h8v18l-1 8h-6l3-3 1-5v-9l-2-2-1-5z" fill="#93DFBD"/>
<path transform="translate(1262,236)" d="m0 0h1v17h-5v-2l-5-2-6-4-4-1 1-3 12 6 3-1z" fill="#00945E"/>
<path transform="translate(940,388)" d="m0 0 2 3 1 4v9l-2-1h-18l-1-2 8-1h11l-3-4z" fill="#636E7E"/>
<path transform="translate(834,269)" d="m0 0 8 5 1-2v7l-1 3-4-1-4-2-1-2v-7z" fill="#008457"/>
<path transform="translate(812,254)" d="m0 0 7 1 2 2-1 5-9 1-3-3 2-4z" fill="#9CB0B2"/>
<path transform="translate(89,231)" d="m0 0 6 4 10 6 1 5-8 3-1-10-4-2-4-4z" fill="#01A86C"/>
<path transform="translate(350,64)" d="m0 0h9l2 3v3h-3v2l-3 1-5-2-2-6z" fill="#0FD086"/>
<path transform="translate(1390,604)" d="m0 0h1l-1 18-2 7-5 1 2-12 4-9z" fill="#D6DCDF"/>
<path transform="translate(678,259)" d="m0 0 5 1 3 2v5l-3 2-3-1 1-3v-4l-2 1 1 5-1 2-5-1-1-4z" fill="#D1E0DD"/>
<path transform="translate(602,587)" d="m0 0h21v15l-3-3v-5l-2-2-4-2-12-2z" fill="#02091C"/>
<path transform="translate(890,557)" d="m0 0h1v9l4 1-2 6-2 5-3 2 1-11-2-5 1-5z" fill="#02091B"/>
<path transform="translate(1520,562)" d="m0 0 2 1-1 9-6 14-3 1 2-9 5-15z" fill="#0F1220"/>
<path transform="translate(61,205)" d="m0 0 7 1 6 8v2l5 2-1 3v-2l-6-2-6-4-5-5z" fill="#01AB70"/>
<path transform="translate(497,546)" d="m0 0h2l3 12-1 7h-2l-4-4v-11z" fill="#080C1A"/>
<path transform="translate(889,260)" d="m0 0h5l3 3v5l-6 1-5-2-1-4z" fill="#9EAEB2"/>
<path transform="translate(1181,597)" d="m0 0h27l-2 9-2-2v-3l-18-2-5-1z" fill="#01020F"/>
<path transform="translate(1413,547)" d="m0 0h3l1 7-2 9-2 7-1 7-2-4 3-17-1-1z" fill="#090F21"/>
<path transform="translate(603,515)" d="m0 0h3l2 10-1 6-1 3 5 2v1h-7l-1-9z" fill="#010312"/>
<path transform="translate(431,347)" d="m0 0 22 1 5 1v1h-44v-1z" fill="#02091C"/>
<path transform="translate(596,263)" d="m0 0 7 3 8 1-5 6-7-1-4-2z" fill="#008E5B"/>
<path transform="translate(1405,250)" d="m0 0 6 2 5 3v2l3 1-1 3h3l2 4-1 3-2-2v-4l-5-1-10-7z" fill="#03A069"/>
<path transform="translate(361,274)" d="m0 0 1 4-2 4-23 1v-1l12-3 7-3h5z" fill="#007A53"/>
<path transform="translate(1128,247)" d="m0 0h6l3 4v3l-4 1v-2l-5-2 1 3-2 3h2v2l-4-1-1-4 2-5z" fill="#61BD9D"/>
<path transform="translate(687,70)" d="m0 0h3l4 9v2h-8l-2-2v-6l3-1z" fill="#F7FAF9"/>
<path transform="translate(292,627)" d="m0 0h2l3 7v9h-2l-1 3-3-9z" fill="#091124"/>
<path transform="translate(1492,268)" d="m0 0h1l1 5v10l-12 1-2-2 8-5 3-1z" fill="#008D5B"/>
<path transform="translate(1357,73)" d="m0 0h7l4 4-1 3-5 1-5-1-1-1v-5z" fill="#CEDDDB"/>
<path transform="translate(105,65)" d="m0 0h4v2l6-1v3l4 1-3 1h-21v-2l7-1z" fill="#0FCB83"/>
<path transform="translate(136,262)" d="m0 0h1l-1 10-2 1-1-3-5-1-7 1 2-5 2-1h9v2h2z" fill="#00935D"/>
<path transform="translate(1231,179)" d="m0 0h8l3 2v6l-4 1-5-3-2-3z" fill="#B3BEC2"/>
<path transform="translate(398,602)" d="m0 0 8 5 7-1v3l6 2v2h-14l1-3h-3v-2h-2l-3-4z" fill="#02091C"/>
<path transform="translate(100,172)" d="m0 0h6l-1 13-1 1h-5v-2h2l-2-10z" fill="#CCDCDA"/>
<path transform="translate(885,615)" d="m0 0h1v21l-3 5-2 4 1-12 2-17z" fill="#02091B"/>
<path transform="translate(1197,515)" d="m0 0 2 1v9l-1 9 3 3h-7l1-14z" fill="#020819"/>
<path transform="translate(236,271)" d="m0 0 4 4 1 7h-12l1-4 4-1z" fill="#00935E"/>
<path transform="translate(453,231)" d="m0 0h7l3 1 18 2v1h-30v-3z" fill="#07A86B"/>
<path transform="translate(1221,503)" d="m0 0 5 2-3 15h-2l1 6-2-3v-15z" fill="#040818"/>
<path transform="translate(90,234)" d="m0 0 7 5 1 3v7l-3 2-3-7-2-5z" fill="#019A60"/>
<path transform="translate(1176,425)" d="m0 0 2 1 2 10v7h-4l-2-9v-8z" fill="#02091C"/>
<path transform="translate(842,257)" d="m0 0h1v15l-1 2-5-2-5-6 6-1 4-1z" fill="#00995F"/>
<path transform="translate(1394,165)" d="m0 0 4 2 6 4-2 1v2h-3v2l-2 1-2 3-1-4z" fill="#0DB879"/>
<path transform="translate(720,644)" d="m0 0 2 4-1 6-5 3h-19v-1l14-1 1-3 8-2z" fill="#02091C"/>
<path transform="translate(509,434)" d="m0 0h1l1 8h1l-1 9-1 14h-1l-2-11 1-19z" fill="#0A1225"/>
<path transform="translate(590,252)" d="m0 0 5 1 1 7-1 5-1 4-5 1v-2h3l-1-8-1-1z" fill="#8DA1A5"/>
<path transform="translate(1053,551)" d="m0 0h1v14l-1 3h-2v2h-2v-8l2-10z" fill="#141928"/>
<path transform="translate(783,70)" d="m0 0 2 1 1 5-1 2h3v-6h2l3 3-1 5h-10l-1-7z" fill="#8BE1BF"/>
<path transform="translate(526,579)" d="m0 0 13 1 42 1v1h-51v-2z" fill="#050917"/>
<path transform="translate(318,81)" d="m0 0 5 1-2 1 1 3-3 8v10l1 2 4 2h-7v-26z" fill="#90DEBB"/>
<path transform="translate(1336,399)" d="m0 0 2 2 7 32h-2l-5-18-2-9z" fill="#020B1F"/>
<path transform="translate(313,247)" d="m0 0h5l3 3-1 5-4 1 1-3h-2l1-3-6 1v4l2 2-5-1-1-3 5-5z" fill="#BDCACC"/>
<path transform="translate(594,104)" d="m0 0 5 1 1 1v6l-3 2-1-2v-5l-1 8-4-1-1-5z" fill="#CADFDA"/>
<path transform="translate(349,268)" d="m0 0 12 2 2-1-2 6-12-2-5-2 3-2z" fill="#008A59"/>
<path transform="translate(1282,470)" d="m0 0 4 2 15 13 3 4h-3l-1-3h-3v-2l-4-2v-2h-3l-8-8z" fill="#BEC6CB"/>
<path transform="translate(513,416)" d="m0 0h1v11l-2 15-2 2-1-15 3-7z" fill="#020819"/>
<path transform="translate(1161,559)" d="m0 0h25v1h-24v2h11l9 3-2 1-7-1-1-1h-6l-5 2z" fill="#232A3B"/>
<path transform="translate(507,169)" d="m0 0h2l1 3v7l-2 3-6-5 1-4h2z" fill="#07C580"/>
<path transform="translate(116,70)" d="m0 0 5 1v19l-3 1v-13z" fill="#90DBBA"/>
<path transform="translate(214,57)" d="m0 0h6l1 4-3 5-4-1-2-2 1-5z" fill="#CADCD9"/>
<path transform="translate(115,49)" d="m0 0 11 1v1l-23 2h-8v-2l4-1z" fill="#060917"/>
<path transform="translate(1444,205)" d="m0 0 9 3 7 3 10 9-1 2-6-5-5-3v-2l-10-3z" fill="#8EB6AC"/>
<path transform="translate(352,172)" d="m0 0 5 2 12 4 1-4-1 9-7-2-7-6z" fill="#01AA6D"/>
<path transform="translate(449,64)" d="m0 0 6 1 2 3-4 5-4-1-1-1v-6z" fill="#CCDCDA"/>
<path transform="translate(404,529)" d="m0 0h2l3 15v8h-2l-2-5z" fill="#040716"/>
<path transform="translate(209,249)" d="m0 0 4 2 2-1 2 7h6l5-3-2 4-2 1h-9l-5-5z" fill="#05B275"/>
<path transform="translate(814,169)" d="m0 0 2 1-1 5-4 1h-8l2-4z" fill="#D1DCDC"/>
<path transform="translate(897,142)" d="m0 0 5 2 11 8 5 5v3l-8-6-13-11z" fill="#05A56B"/>
<path transform="translate(1401,59)" d="m0 0h5l2 2-1 5-5 1-3-3 1-4z" fill="#CCDCDA"/>
<path transform="translate(1170,401)" d="m0 0 4 4 2 6v6l-4-1-2-8z" fill="#02091D"/>
<path transform="translate(516,391)" d="m0 0h1v12l-2 11h-1l-1-7v-7z" fill="#020A1D"/>
<path transform="translate(1136,250)" d="m0 0h2l-1 7-1 2h-7v-2h-2l1-6 5 2 4 1z" fill="#0BB375"/>
<path transform="translate(606,166)" d="m0 0h1l1 9 4 1 5 5 1-2 1-9h1v11l-3 3-11-8-1-4z" fill="#02AD70"/>
<path transform="translate(597,258)" d="m0 0 7 6 5 2v1l-9-1-3-2-1 5-4 1 2-2v-6z" fill="#029D63"/>
<path transform="translate(61,208)" d="m0 0 7 6 10 5v1h-9l-5-4-3-6z" fill="#00995F"/>
<path transform="translate(549,58)" d="m0 0h7l-4 4-2 18h-1l-1-6v-13z" fill="#0CCE85"/>
<path transform="translate(493,523)" d="m0 0h3l2 10-1 2-5-2v-8z" fill="#050917"/>
<path transform="translate(934,257)" d="m0 0 7 2v2l5 2 3 2 1 5-6-3-10-9z" fill="#04A36B"/>
<path transform="translate(956,601)" d="m0 0h1l2 10v16l-2-1-1-6z" fill="#050917"/>
<path transform="translate(895,500)" d="m0 0h28v1l-23 2-5 1z" fill="#01020F"/>
<path transform="translate(379,523)" d="m0 0h3l2 6 1 10-4-1-2-9z" fill="#02091C"/>
<path transform="translate(371,166)" d="m0 0h1v10l-2 23h-1l-1-13-4-4 5 1z" fill="#098962"/>
<path transform="translate(86,176)" d="m0 0 3 1 2 10h-7l1-7z" fill="#CCDCDA"/>
<path transform="translate(1057,164)" d="m0 0 4 1v7l-1 5-4-5-1-6z" fill="#04C882"/>
<path transform="translate(652,57)" d="m0 0 5 1 1 5-2 3-4-1-2-5z" fill="#CBDCD9"/>
<path transform="translate(1040,648)" d="m0 0h1l-1 7-6 2-5-1 2-4 6-2z" fill="#030819"/>
<path transform="translate(1116,217)" d="m0 0 6 1 9 4 12 4v1h-8l-19-9z" fill="#1CBC6A"/>
<path transform="translate(1234,65)" d="m0 0 6 1 1 4-2 2h-6l-1-5z" fill="#E4EFEC"/>
<path transform="translate(1343,440)" d="m0 0h2l1 6 2 1 2 7v7h-2l-1-9-3-1z" fill="#040919"/>
<path transform="translate(576,262)" d="m0 0 5 1v1l6 1 1-2 2 4 2 1-6 2-2-1v-3l-3 1-5-2z" fill="#818C97"/>
<path transform="translate(1422,259)" d="m0 0 8 1 4 3v4l-5-2-7-3z" fill="#CDD7D8"/>
<path transform="translate(1230,121)" d="m0 0 4 2 3 4v2l-10 3v-3l4-4z" fill="#03AE70"/>
<path transform="translate(625,72)" d="m0 0h9l-2 4-5 3-3 2v-7z" fill="#FCFCFC"/>
<path transform="translate(197,588)" d="m0 0 2 4 2 7 1 7h-3l-4-14 1-3z" fill="#151B2A"/>
<path transform="translate(390,567)" d="m0 0 2 2 1 9-2 3-3 1-1-9 3-1z" fill="#0E1629"/>
<path transform="translate(1058,502)" d="m0 0h3v9l-1 5-4-1 1-9z" fill="#02091C"/>
<path transform="translate(578,252)" d="m0 0h9l2 2-3 1 1 4h-2l1 5-6 1 3-9-1-1-1-2z" fill="#16BA7E"/>
<path transform="translate(804,244)" d="m0 0 7 6 1 5-3 2v-2l-3-1z" fill="#00955F"/>
<path transform="translate(1237,241)" d="m0 0 6 1 1 4-2 4-5-2-1-1v-5z" fill="#02A460"/>
<path transform="translate(729,236)" d="m0 0h1l1 13v10l-2-4v-3h-2v-8z" fill="#007651"/>
<path transform="translate(1035,69)" d="m0 0h8v3l-8 3-4-1v-3z" fill="#88E3BC"/>
<path transform="translate(1284,624)" d="m0 0h1v14l-2 7h-3l1-8z" fill="#1A1F2E"/>
<path transform="translate(376,501)" d="m0 0h7l-2 1-2 6-1 8-2-3-1-9z" fill="#02091D"/>
<path transform="translate(1085,457)" d="m0 0h1v6l3 1v6h-2l-2 4h-2v-8l1-1z" fill="#020B1F"/>
<path transform="translate(1284,268)" d="m0 0 5 5 4 6v4h-6v-8l-3-5z" fill="#008C5A"/>
<path transform="translate(216,246)" d="m0 0h15l-3 2-10 1-4 1-1 2-3-5z" fill="#05A569"/>
<path transform="translate(1441,110)" d="m0 0h6l2 2-1 5-5-1-3-3z" fill="#CEDCDB"/>
<path transform="translate(1058,413)" d="m0 0 2 2 2 7v8l-2 3-2-10z" fill="#02091C"/>
<path transform="translate(609,275)" d="m0 0 7 1 4 6h-8l-1-4h-2z" fill="#008C5A"/>
<path transform="translate(313,249)" d="m0 0 4 1-2 3h2v4l-8-1v-5z" fill="#768690"/>
<path transform="translate(314,631)" d="m0 0 3 1 2 12-4-1-2-8z" fill="#161B2B"/>
<path transform="translate(1183,598)" d="m0 0 11 2v2h3l2 8-1 5h-1l-1-10-9-3v-2z" fill="#02091C"/>
<path transform="translate(1522,570)" d="m0 0 1 3-10 20-2-4 2-3h2l3-10z" fill="#030818"/>
<path transform="translate(1263,234)" d="m0 0h3v2h6l3 3-11 2z" fill="#8EB3AB"/>
<path transform="translate(524,130)" d="m0 0 2 2v10l-3 2-1-1v-11z" fill="#051C31"/>
<path transform="translate(176,99)" d="m0 0h10l-1 10-2-3-1-2-6-3z" fill="#020717"/>
<path transform="translate(167,428)" d="m0 0h1l-1 9-2 7-2 6h-1l1-12z" fill="#070E20"/>
<path transform="translate(1166,266)" d="m0 0h7l8 3-1 4-10-4-4-1z" fill="#00935E"/>
<path transform="translate(259,165)" d="m0 0 2 1v7l-2 3-2-3-1 2-5-1 4-1 2-6z" fill="#0ECC83"/>
<path transform="translate(730,79)" d="m0 0h1l1 9v11h-5l4-1v-3l-4-1v-3h2z" fill="#11BC7D"/>
<path transform="translate(1353,72)" d="m0 0 3 2v7l-5-2-3-4z" fill="#0FD086"/>
<path transform="translate(178,66)" d="m0 0h5l-1 9-4-1-1-7z" fill="#F3F8F6"/>
<path transform="translate(286,651)" d="m0 0h6l-2 1v2l-4 2h-14v-1l10-2z" fill="#02091B"/>
<path transform="translate(607,504)" d="m0 0h1v18h-1l-1-7h-2v-8h3z" fill="#040919"/>
<path transform="translate(1342,485)" d="m0 0h1v7l-3 13-3 1 1-6z" fill="#030A1D"/>
<path transform="translate(1219,380)" d="m0 0 2 1 3 19h-2l-3-10z" fill="#020B1F"/>
<path transform="translate(184,114)" d="m0 0 1 2 5 2 1 2h-2v2l-3 3-2 4z" fill="#17B66D"/>
<path transform="translate(251,76)" d="m0 0 7 1 2 3-1 3-4 1-3-4z" fill="#13D388"/>
<path transform="translate(1498,637)" d="m0 0 1 4-5 13-1-3 1-3h-2l2-7 3-1z" fill="#040919"/>
<path transform="translate(759,205)" d="m0 0 5 2 7 7 5 3-2 1-6-4-4-3-5-1z" fill="#01A96A"/>
<path transform="translate(899,99)" d="m0 0h19l3 3-7-1h-9l-5 2-2 3v-6z" fill="#A2DDC4"/>
<path transform="translate(515,54)" d="m0 0h2v11l-2 12h-1v-14z" fill="#11D187"/>
<path transform="translate(409,546)" d="m0 0h1l2 17-3 1-2-12h2z" fill="#252B3B"/>
<path transform="translate(1060,480)" d="m0 0 3 3v7l-1 4-3-1v-9z" fill="#02091C"/>
<path transform="translate(1412,140)" d="m0 0h2l1 9 3 1 3 5h-5l-4-9z" fill="#A0D8C1"/>
<path transform="translate(1223,113)" d="m0 0 1 2h2l1 10h-2v8h-1z" fill="#039860"/>
<path transform="translate(433,79)" d="m0 0h1v8l-2 20h-1l-1-17 1-5h2z" fill="#0A363A"/>
<path transform="translate(423,615)" d="m0 0 2 2 5 12 2 3-5-2-3-3z" fill="#D6DCDF"/>
<path transform="translate(1398,606)" d="m0 0 1 4 1 2 14 1v1h-19v-5z" fill="#2A3142"/>
<path transform="translate(817,255)" d="m0 0 4 2-1 5-5 1-2-3z" fill="#86999F"/>
<path transform="translate(899,229)" d="m0 0h8l6 9-5-2-9-6z" fill="#03A46B"/>
<path transform="translate(81,217)" d="m0 0 4 3v7l-4-1-2-4 1-4z" fill="#CBDAD9"/>
<path transform="translate(531,634)" d="m0 0h1l2 16h13v1l-14 1-2-5z" fill="#333B4C"/>
<path transform="translate(1285,635)" d="m0 0 2 1-3 13h-2l-1 4-2 1 1-9h3l1-7z" fill="#02081A"/>
<path transform="translate(101,631)" d="m0 0 2 3 3 9v3h-2l-3-9-2 2-1-5z" fill="#1D2231"/>
<path transform="translate(968,520)" d="m0 0h1v16l-1 12h-1l-1-16z" fill="#2A3549"/>
<path transform="translate(1433,272)" d="m0 0h2v2h2v2l5 2 2 4h-7z" fill="#00935E"/>
<path transform="translate(1321,215)" d="m0 0 4 1v7l-6-1 1-6z" fill="#02091C"/>
<path transform="translate(1172,171)" d="m0 0h1l1 10 1 5-5-1-3-4 5-1z" fill="#0BA96A"/>
<path transform="translate(1034,160)" d="m0 0 7 4 2 3-3 1-7-3-1-2z" fill="#00A96D"/>
<path transform="translate(209,53)" d="m0 0h12l3 4 3 2-5 2-1-6-7 1-5-2z" fill="#22E69B"/>
<path transform="translate(1147,639)" d="m0 0 3 3-1 8-3 1h-13v-1l12-1z" fill="#2D3547"/>
<path transform="translate(402,514)" d="m0 0 3 1 1 14-3-1-1-6z" fill="#111626"/>
<path transform="translate(492,517)" d="m0 0h2l1 6h-2l-1 10h-1l-1-14z" fill="#1F283A"/>
<path transform="translate(449,220)" d="m0 0h16l1 2-13 2-4-1z" fill="#019A60"/>
<path transform="translate(172,218)" d="m0 0h1v12l-4 2 1-12z" fill="#009964"/>
<path transform="translate(787,166)" d="m0 0 3 1 2 5 2 1v2l-7 1z" fill="#D0DCDC"/>
<path transform="translate(208,147)" d="m0 0 4 1 6 10h-3l-9-9z" fill="#04A26A"/>
<path transform="translate(1473,82)" d="m0 0 4 1 2 4-2 2-5-1-1-3z" fill="#CBDCD9"/>
<path transform="translate(169,583)" d="m0 0h2l2 2 4 2-2 4-4 1z" fill="#0F172A"/>
<path transform="translate(717,538)" d="m0 0 3 3 3 6v6l-3-4-1-2-2 3z" fill="#02091C"/>
<path transform="translate(1336,521)" d="m0 0 3 1-1 6-4 9h-1l1-10z" fill="#F7F8F9"/>
<path transform="translate(449,243)" d="m0 0h1v9l-2 6h-4l-4-4 1-2 7 3z" fill="#07A86B"/>
<path transform="translate(1471,223)" d="m0 0 2 2 1 4-1 1-9 1h-19v-1l26-2z" fill="#0FBF7D"/>
<path transform="translate(87,174)" d="m0 0h4v3h2l1 8 1 2h-4l-3-10z" fill="#8EE0BB"/>
<path transform="translate(790,153)" d="m0 0h7l7 3v1h-9l-2-1v-2l-5 4 1-4z" fill="#6DEAB7"/>
<path transform="translate(373,57)" d="m0 0h5l-1 6-4 1-2-3v-3z" fill="#3FF9B4"/>
<path transform="translate(222,54)" d="m0 0h11l-1 3-5 2-5-3z" fill="#05C982"/>
<path transform="translate(960,625)" d="m0 0h1l-1 19-2-3v-13z" fill="#292F3E"/>
<path transform="translate(399,499)" d="m0 0h2v11l-3-4-6-6 7 1z" fill="#060B1B"/>
<path transform="translate(448,258)" d="m0 0 5 1 2 4-6 2h-2z" fill="#8FB7AD"/>
<path transform="translate(257,172)" d="m0 0 4 1-1 13h-2v-10l-4-1h2z" fill="#1DA87B"/>
<path transform="translate(1305,102)" d="m0 0 2 2 1 3v11h-2l-1-4z" fill="#072730"/>
<path transform="translate(1365,99)" d="m0 0h19v5l-10-3-9-1z" fill="#020819"/>
<path transform="translate(1069,603)" d="m0 0 2 1-1 15-2-2v-13z" fill="#1B202F"/>
<path transform="translate(1314,508)" d="m0 0h1l1 10-3 3-1-7-1-5z" fill="#02091C"/>
<path transform="translate(1343,433)" d="m0 0h2l1 8h2v6l-3-1v-6h-2z" fill="#111829"/>
<path transform="translate(1483,209)" d="m0 0h1l1 11-2-1v-2l-5 2v-6h4z" fill="#048057"/>
<path transform="translate(234,177)" d="m0 0h10l-1 5-9-3z" fill="#8EB6AC"/>
<path transform="translate(1257,141)" d="m0 0 4 2 14 10-1 2-12-8z" fill="#0DCB83"/>
<path transform="translate(543,65)" d="m0 0h1l1 13 1 2-1 4h-2v8h-1z" fill="#068F59"/>
<path transform="translate(85,54)" d="m0 0h26l-2 2h-20l-2 1-2 3z" fill="#11D489"/>
<path transform="translate(1420,609)" d="m0 0h1v5l-21-1v-1l17-1z" fill="#040717"/>
<path transform="translate(1406,261)" d="m0 0h3l1 2v9h-3z" fill="#007651"/>
<path transform="translate(1477,158)" d="m0 0 2 2 1 3v13h-1l-2-7z" fill="#020A1D"/>
<path transform="translate(555,130)" d="m0 0h7l1 3h2v3l-3 1-7-6z" fill="#06A569"/>
<path transform="translate(1439,545)" d="m0 0h1l-1 10-3 1v-4l-2 1 2-5z" fill="#0D1222"/>
<path transform="translate(969,412)" d="m0 0 2 4v14h-1l-1-7-1-1v-9z" fill="#010617"/>
<path transform="translate(781,234)" d="m0 0 5 1v4l-5 1-1-5z" fill="#83E3BC"/>
<path transform="translate(536,208)" d="m0 0 5 2 5 5-10-1z" fill="#019A60"/>
<path transform="translate(890,557)" d="m0 0h1v13l-2-1-2-5 1-5z" fill="#050917"/>
<path transform="translate(1062,459)" d="m0 0 3 3v5h-2l-1 10h-1v-15z" fill="#020A1E"/>
<path transform="translate(1036,257)" d="m0 0 14 1 3 4-3-1-12-1z" fill="#00945E"/>
<path transform="translate(1235,238)" d="m0 0h5l3 2-1 3-5-1-1 6h-1z" fill="#00905B"/>
<path transform="translate(1279,158)" d="m0 0 11 7v1l-7-1-4-3z" fill="#00A96D"/>
<path transform="translate(1199,144)" d="m0 0h19v1l-14 2-5-2z" fill="#00AB6F"/>
<path transform="translate(1196,649)" d="m0 0 5 1 6 6h-6l-5-5z" fill="#040919"/>
<path transform="translate(1150,621)" d="m0 0 2 3-1 8-1 6h-2l1-12z" fill="#212736"/>
<path transform="translate(416,588)" d="m0 0h1l1 12-2 2-2-6v-3h2z" fill="#161B2B"/>
<path transform="translate(1332,533)" d="m0 0 2 4-2 11-3 2 2-13z" fill="#D4D8DC"/>
<path transform="translate(1313,500)" d="m0 0 3 1v6l-2 2h-3l1-5z" fill="#101728"/>
<path transform="translate(1550,442)" d="m0 0 3 3 3 9-1 7h-1l-4-16z" fill="#02081A"/>
<path transform="translate(1420,259)" d="m0 0h2v3h3l2 6 2 2-5-1-3-5v-3l-3-1z" fill="#85A0A0"/>
<path transform="translate(590,252)" d="m0 0 5 1 1 7h-2l-4-4z" fill="#AABFBE"/>
<path transform="translate(807,246)" d="m0 0 6 2 4 6-1 2-4-2-4-6z" fill="#02A86D"/>
<path transform="translate(422,223)" d="m0 0h1v8l3 1-2 4h-2l1 4-2 1z" fill="#007F54"/>
<path transform="translate(1113,220)" d="m0 0 6 2 7 7 1 3h-2v-2l-4-2-8-7z" fill="#02A56B"/>
<path transform="translate(1441,205)" d="m0 0h1l1 9v12h-1l-1-11-2-4 1-5z" fill="#0FD28A"/>
<path transform="translate(249,178)" d="m0 0 6 1 2 2-1 3-5-2-6-1v-2z" fill="#02A461"/>
<path transform="translate(169,152)" d="m0 0 15 1-3 2h-14v-2z" fill="#11B772"/>
<path transform="translate(431,107)" d="m0 0h1l1 9 8 7 1 2-4-2-3-3-4-1z" fill="#0EC37C"/>
<path transform="translate(1503,53)" d="m0 0h13l2 7h-3v-5l-12-1z" fill="#02091C"/>
<path transform="translate(1428,614)" d="m0 0h1v9l1 8-4-3 1-9z" fill="#D6DCDF"/>
<path transform="translate(1039,261)" d="m0 0h4l2 7 2 2-4-1-5-6z" fill="#ADB8BD"/>
<path transform="translate(1400,215)" d="m0 0h1v5l6 1 1 2-5 1-1 4-2-7z" fill="#15AD65"/>
<path transform="translate(435,179)" d="m0 0h4l-1 6-2 2h-3l1-4z" fill="#CFD9DA"/>
<path transform="translate(250,177)" d="m0 0h7l2 9-1 5h-1l-1-10-6-2z" fill="#02A56B"/>
<path transform="translate(44,452)" d="m0 0h3v10l-2 3-2-5z" fill="#182033"/>
<path transform="translate(575,262)" d="m0 0 2 3 7 1v4l-6-1-3-3z" fill="#8EB6AC"/>
<path transform="translate(822,260)" d="m0 0 6 3v1h-16l4-2h6z" fill="#029660"/>
<path transform="translate(1409,256)" d="m0 0 5 1 4 2v2h3l2 4-1 3-2-2v-4l-5-1-6-4z" fill="#05A569"/>
<path transform="translate(311,248)" d="m0 0h6l-4 2-3 1v4l2 2-5-1-1-3z" fill="#CAD5D6"/>
<path transform="translate(869,121)" d="m0 0 5 2 2 3-6 3z" fill="#0DD186"/>
<path transform="translate(1085,93)" d="m0 0h1v21h-1l-2-12 1-1z" fill="#02222A"/>
<path transform="translate(592,106)" d="m0 0h2l1 9-4-1-1-5z" fill="#DFEEE9"/>
<path transform="translate(190,581)" d="m0 0 4 2 3 3-1 4-2 1-4-8z" fill="#040818"/>
<path transform="translate(1082,515)" d="m0 0h1l-1 12h-2v-8l-2-1 4-1z" fill="#253042"/>
<path transform="translate(255,488)" d="m0 0 2 4 1 6-5-2-1-4h2z" fill="#CDD4D8"/>
<path transform="translate(659,458)" d="m0 0h7l4 6 1 2-4-2-8-5z" fill="#8C96A0"/>
<path transform="translate(283,423)" d="m0 0 1 4-2 9h-2v-7z" fill="#02091D"/>
<path transform="translate(356,267)" d="m0 0h7l-2 4-10-2v-1z" fill="#00915D"/>
<path transform="translate(227,256)" d="m0 0h1l3 9 1 2-4-2-4-5z" fill="#00945E"/>
<path transform="translate(903,233)" d="m0 0 5 2 8 6 1 2-5-2-8-6z" fill="#019A60"/>
<path transform="translate(123,206)" d="m0 0h6l1 4h-7z" fill="#CCDCDA"/>
<path transform="translate(1464,131)" d="m0 0 7 3v4l-6-2z" fill="#17C273"/>
<path transform="translate(89,131)" d="m0 0 9 2 2 2-1 4-4-4-5-2z" fill="#0FC27F"/>
<path transform="translate(576,64)" d="m0 0h1v18l-5-1 3-5z" fill="#90DBBA"/>
<path transform="translate(1357,73)" d="m0 0h6l1 4-1 2-5-2-2-1z" fill="#A4BEBB"/>
<path transform="translate(1024,69)" d="m0 0h11l-5 4-5-1z" fill="#17D88E"/>
<path transform="translate(1515,60)" d="m0 0h3v12l-3-4z" fill="#021B27"/>
<path transform="translate(1061,633)" d="m0 0 1 4h2l1 10-1-4h-3z" fill="#010719"/>
<path transform="translate(527,616)" d="m0 0 3 2-1 13-2-4z" fill="#050919"/>
<path transform="translate(1075,568)" d="m0 0h1l-1 11-1 8h-1l-1-11 2-3z" fill="#333D4D"/>
<path transform="translate(380,535)" d="m0 0 3 1 3 4h-2l-1 6-2-2z" fill="#232D40"/>
<path transform="translate(1223,511)" d="m0 0h1l-1 9h-2l1 6-2-3v-6z" fill="#030614"/>
<path transform="translate(1306,490)" d="m0 0 7 5v9h-1v-7l-4-2-4-4z" fill="#C3CACF"/>
<path transform="translate(97,239)" d="m0 0 4 2v7l-3 1z" fill="#03A36A"/>
<path transform="translate(907,223)" d="m0 0 3 1 1 5-4 1-1-1v-5z" fill="#D7EEE6"/>
<path transform="translate(1312,175)" d="m0 0 2 4v9h-1l-1-7-5-2-1-2 4 1 1 1z" fill="#1B8A6B"/>
<path transform="translate(1061,166)" d="m0 0 2 1v12l-1-2h-2z" fill="#0FD287"/>
<path transform="translate(458,148)" d="m0 0h4l-1 5-4 1-2-1 2-4z" fill="#D3E6E0"/>
<path transform="translate(176,96)" d="m0 0h13l1 4-3-1-11-1z" fill="#1FE398"/>
<path transform="translate(952,95)" d="m0 0 12 1v2h-11z" fill="#30F0A7"/>
<path transform="translate(367,53)" d="m0 0h15v1l-12 1-2 4-3-5z" fill="#24AB7F"/>
<path transform="translate(956,644)" d="m0 0h1l2 7 9 3-3 1-10-3v-6z" fill="#060917"/>
<path transform="translate(180,612)" d="m0 0 2 3-1 9-2-3-1-7z" fill="#182033"/>
<path transform="translate(1412,555)" d="m0 0 2 2-2 9-3 1 1-7z" fill="#030615"/>
<path transform="translate(1422,514)" d="m0 0 1 3h2l-2 7h-3l1-6z" fill="#232B3C"/>
<path transform="translate(713,489)" d="m0 0h1l1 8-5-2-2-1v-3h5z" fill="#D3DADD"/>
<path transform="translate(1345,473)" d="m0 0h2l-2 11-2 4v-8z" fill="#020C21"/>
<path transform="translate(183,366)" d="m0 0h1v7l-2 5h-1l-1-7z" fill="#020A1E"/>
<path transform="translate(490,205)" d="m0 0 4 2-1 3h-7l-1-2z" fill="#B5D5CD"/>
<path transform="translate(171,188)" d="m0 0h4l-1 5-5-2-7-1v-1z" fill="#020A1E"/>
<path transform="translate(1028,73)" d="m0 0 9 1v2l2 1h-3v2l-4-2z" fill="#10BE7C"/>
<path transform="translate(495,541)" d="m0 0h1l1 10-3 4-1-13z" fill="#2C384E"/>
<path transform="translate(887,261)" d="m0 0h4l-2 5 1 2-4-1-1-4z" fill="#C8D4D5"/>
<path transform="translate(780,221)" d="m0 0 5 2 3 4 1 5-5-5-1-3z" fill="#02A56A"/>
<path transform="translate(1414,154)" d="m0 0 15 1v1h-8v2l-6-1z" fill="#0AB373"/>
<path transform="translate(573,148)" d="m0 0h8v2l2 1-5 2-5-3z" fill="#19BD6D"/>
<path transform="translate(1223,136)" d="m0 0 2 1 1 5h-7l2-4z" fill="#02091C"/>
<path transform="translate(350,98)" d="m0 0 1 2-1 8h-6l3-3 2-6z" fill="#96DCBD"/>
<path transform="translate(356,65)" d="m0 0h4l1 5-6-1v-3z" fill="#B6DDCE"/>
</svg>
