<svg xmlns="http://www.w3.org/2000/svg" viewBox="0 0 104.28 69.55"><defs><style>.cls-1{fill:#00923a;}.cls-2{fill:#fedf00;}.cls-3{fill:#00358a;}.cls-4{fill:#fff;}</style></defs><title>brasil</title><g id="Camada_2" data-name="Camada 2"><g id="_1" data-name=" 1"><rect class="cls-1" width="104.28" height="69.55"/><polygon class="cls-2" points="52.14 9.53 13.18 34.78 52.14 60.03 91.1 34.78 52.14 9.53"/><circle class="cls-3" cx="52.14" cy="34.78" r="15.3"/><path class="cls-4" d="M39.2,26.64a15.42,15.42,0,0,0-1.44,2.94A34.71,34.71,0,0,1,66,41.32,14.6,14.6,0,0,0,67,38.24,37.92,37.92,0,0,0,39.2,26.64Z"/><circle class="cls-4" cx="48.12" cy="33.89" r="0.88"/><path class="cls-4" d="M58.2,41.32a.89.89,0,1,1-.88-.88A.88.88,0,0,1,58.2,41.32Z"/><circle class="cls-4" cx="54.72" cy="35.66" r="0.88"/></g></g></svg>