<svg xmlns="http://www.w3.org/2000/svg" viewBox="0 0 56 50"><defs><style>.cls-1{fill:#a53c3c;}</style></defs><title>icone3</title><g id="Camada_2" data-name="Camada 2"><g id="Camada_5" data-name="Camada 5"><path class="cls-1" d="M51.33,16.09A12.68,12.68,0,0,0,36.1,14.16a2.54,2.54,0,0,1-1.2.3H31.61V13.22a1.9,1.9,0,0,0-1.9-1.9h-1c-.3-1.05-.75-3.19.14-4.65A7,7,0,0,0,29.18.6a1,1,0,1,0-1.83.79,5.11,5.11,0,0,1-.25,4.24,7.73,7.73,0,0,0-.49,5.69h-.32a1.9,1.9,0,0,0-1.9,1.9v1.24H21.1a2.54,2.54,0,0,1-1.2-.3A12.69,12.69,0,0,0,4.67,16.09C-1.43,21.88-.11,34.3.74,39.37q.09.5.15,1c0,.41.11.82.18,1.22C2.49,49.31,6.75,49.92,7.49,50s5.25.28,10.46-8.73a9.43,9.43,0,0,1,.61-.94,4.3,4.3,0,0,0,2.07.56A4.35,4.35,0,0,0,25,36.5a5.23,5.23,0,0,0-.06-.57,10.38,10.38,0,0,1,2.82-.3,2.62,2.62,0,0,0,.56,0,10.33,10.33,0,0,1,2.82.3,5.23,5.23,0,0,0-.06.57,4.35,4.35,0,0,0,4.33,4.36,4.3,4.3,0,0,0,2.07-.56,9.43,9.43,0,0,1,.61.94c4.6,7.95,8.58,8.76,10,8.76a2.44,2.44,0,0,0,.44,0c.74,0,5-.66,6.41-8.38.08-.41.14-.82.19-1.23s.09-.66.15-1C56.11,34.3,57.43,21.88,51.33,16.09Zm-17,.36-1,1.61a4.28,4.28,0,0,1-3.55,2h-3.2a4.28,4.28,0,0,1-3.55-2L22,16.45Zm-8-3.13h3.22v1.14H26.39ZM20.63,38.86A2.36,2.36,0,1,1,23,36.5,2.34,2.34,0,0,1,20.63,38.86ZM33,36.5a2.33,2.33,0,1,1,2.33,2.36A2.35,2.35,0,0,1,33,36.5ZM53.29,39c-.07.35-.11.71-.16,1.07s-.1.74-.17,1.12C51.76,47.79,48.52,48,48.4,48h-.19s-3.75.34-8.43-7.75A12.9,12.9,0,0,0,38.93,39a4.33,4.33,0,1,0-7.14-4.91,12.69,12.69,0,0,0-3.72-.41h-.23a12,12,0,0,0-3.63.41A4.33,4.33,0,0,0,17.07,39a11.83,11.83,0,0,0-.85,1.28C11.5,48.4,7.8,48,7.79,48H7.61c-.13,0-3.37-.19-4.57-6.76-.07-.38-.12-.75-.17-1.12s-.09-.72-.16-1.07C2.09,35.33.49,22.82,6.05,17.54a10.59,10.59,0,0,1,12.89-1.62l.38.17,2,3.06a6.28,6.28,0,0,0,5.23,3h3.2a6.25,6.25,0,0,0,5.22-3l2.12-3.25A10.57,10.57,0,0,1,50,17.54C55.51,22.82,53.91,35.33,53.29,39Z"/><path class="cls-1" d="M40.82,25.39a3.08,3.08,0,1,0-3.08,3.09A3.09,3.09,0,0,0,40.82,25.39Zm-3.08,1.09a1.1,1.1,0,1,1,1.08-1.09A1.08,1.08,0,0,1,37.74,26.48Z"/><path class="cls-1" d="M42.81,23.4a3.1,3.1,0,1,0-3.08-3.09A3.09,3.09,0,0,0,42.81,23.4Zm0-4.19a1.1,1.1,0,1,1-1.08,1.1A1.08,1.08,0,0,1,42.81,19.21Z"/><path class="cls-1" d="M44.79,25.39a3.08,3.08,0,1,0,3.08-3.1A3.09,3.09,0,0,0,44.79,25.39Zm4.15,0a1.08,1.08,0,1,1-1.07-1.1A1.08,1.08,0,0,1,48.94,25.39Z"/><path class="cls-1" d="M42.81,27.37a3.1,3.1,0,1,0,3.07,3.1A3.09,3.09,0,0,0,42.81,27.37Zm0,4.19a1.1,1.1,0,1,1,1.07-1.09A1.08,1.08,0,0,1,42.81,31.56Z"/><path class="cls-1" d="M27.4,19.35h1.5a1,1,0,0,0,0-2H27.4a1,1,0,0,0,0,2Z"/><path class="cls-1" d="M13.57,17.9A7.49,7.49,0,1,0,21,25.39,7.46,7.46,0,0,0,13.57,17.9Zm0,13A5.49,5.49,0,1,1,19,25.39,5.46,5.46,0,0,1,13.57,30.87Z"/><path class="cls-1" d="M16.35,24.35H14.57v-1.6a1,1,0,0,0-2,0v1.6H10.79a1,1,0,0,0,0,2h1.78v2a1,1,0,0,0,2,0v-2h1.78a1,1,0,0,0,0-2Z"/></g></g></svg>